<?xml version="1.0" standalone="no"?>
<!DOCTYPE svg PUBLIC "-//W3C//DTD SVG 20010904//EN"
 "http://www.w3.org/TR/2001/REC-SVG-20010904/DTD/svg10.dtd">
<svg version="1.0" xmlns="http://www.w3.org/2000/svg"
 width="1000.000000pt" height="1000.000000pt" viewBox="0 0 1000.000000 1000.000000"
 preserveAspectRatio="xMidYMid meet">
<metadata>
Created by potrace 1.11, written by Peter Selinger 2001-2013
</metadata>
<g transform="translate(0.000000,1000.000000) scale(0.100000,-0.100000)"
fill="#000000" stroke="none">
<path d="M3213 7779 c-200 -19 -367 -69 -568 -169 -430 -213 -753 -619 -855
-1075 -12 -55 -26 -109 -31 -120 -4 -11 -41 -122 -83 -247 -270 -813 -600
-1449 -1097 -2115 -170 -228 -201 -277 -197 -323 3 -34 4 -35 52 -38 166 -11
744 312 1814 1011 89 59 167 107 171 107 5 0 49 -25 97 -55 49 -30 95 -58 102
-62 10 -6 6 -31 -17 -113 -43 -152 -105 -326 -151 -426 -22 -48 -40 -88 -40
-90 0 -2 116 -4 258 -4 l259 0 55 78 c61 85 141 224 182 317 l26 60 763 0
c759 0 762 0 867 23 338 74 613 225 847 464 216 220 369 504 434 806 30 140
38 438 15 584 -57 364 -212 667 -470 923 -269 266 -610 425 -995 464 -120 13
-1312 13 -1438 0z m1416 -238 c429 -749 439 -1918 24 -2711 -30 -58 -62 -113
-70 -122 -14 -16 -37 -18 -185 -18 -92 0 -168 4 -168 9 0 5 22 60 49 122 154
360 235 763 248 1239 14 535 -74 1049 -252 1451 -25 57 -45 107 -45 111 0 4
78 8 174 8 l174 0 51 -89z m-1349 -1401 l0 -280 -245 0 -245 0 0 280 0 280
245 0 245 0 0 -280z m-30 -1021 c0 -57 -50 -280 -91 -408 -51 -157 -139 -344
-221 -467 l-62 -94 -158 0 c-87 0 -158 3 -158 8 0 4 16 48 35 97 91 232 173
572 200 833 l7 62 224 0 224 0 0 -31z"/>
<path d="M6212 6783 c146 -284 202 -475 223 -749 19 -263 -52 -584 -187 -845
-195 -378 -539 -669 -954 -805 -224 -73 -256 -76 -947 -81 -739 -6 -908 4
-1114 63 -13 3 -23 2 -23 -4 0 -18 131 -206 201 -289 124 -145 310 -290 497
-386 113 -59 294 -121 435 -149 l112 -23 1405 0 c1569 0 1455 -5 1700 71 229
72 422 181 608 345 l53 47 132 -55 c591 -246 1028 -393 1171 -393 125 0 115
29 -84 236 -234 243 -362 404 -496 624 -68 113 -178 325 -221 430 -31 73 -31
77 -21 155 15 117 3 379 -22 500 -145 690 -697 1211 -1383 1304 -89 12 -1091
15 -1085 4z"/>
<path d="M3190 3290 c0 -864 1 -892 20 -929 25 -49 70 -88 120 -101 26 -7 246
-10 657 -8 l618 3 43 25 c27 15 54 42 70 70 l27 45 3 456 3 456 -163 6 c-184
7 -303 28 -468 83 -133 45 -308 135 -430 222 -169 120 -362 331 -457 500 -19
34 -37 62 -39 62 -2 0 -4 -401 -4 -890z"/>
<path d="M8120 3688 c-126 -110 -354 -237 -535 -297 -199 -66 -258 -73 -627
-78 l-338 -5 0 -459 c0 -382 2 -465 14 -488 22 -41 80 -88 123 -100 54 -15
1224 -15 1278 0 51 14 122 86 130 131 3 18 4 326 3 684 l-3 652 -45 -40z"/>
</g>
</svg>
