<svg id="Layer_1" xmlns="http://www.w3.org/2000/svg" viewBox="0 0 256 256">
    <defs>
        <style>
            .cls-1,.cls-9{fill:#c0e8ff;}.cls-2{fill:#4d4d4d;}.cls-3{fill:#f2f2f2;}.cls-14,.cls-3,.cls-7,.cls-8,.cls-9{stroke:#4d4d4d;}.cls-10,.cls-14,.cls-3,.cls-6,.cls-7,.cls-8,.cls-9{stroke-miterlimit:10;}.cls-4{fill:#aec5dc;}.cls-5,.cls-8{fill:#fff;}.cls-10,.cls-14,.cls-6,.cls-7{fill:none;}.cls-6{stroke:#fff;}.cls-10{stroke:#666;}.cls-11{fill:#00a99d;}.cls-12{fill:#fbb03b;}.cls-13{fill:#ed1c24;}.cls-14{stroke-width:2px;}
        </style>
    </defs>
    <path class="cls-1"
          d="M115.84,147.18a2.14,2.14,0,0,1-1.72-.84,3.3,3.3,0,0,1-.43-2.88l3.78-14.58a2.78,2.78,0,0,1,2.59-2h18.48a2.77,2.77,0,0,1,2.59,2l3.78,14.58a3.33,3.33,0,0,1-.42,2.88,2.14,2.14,0,0,1-1.72.84Z"/>
    <path class="cls-2"
          d="M138.54,127.41a2.27,2.27,0,0,1,2.11,1.59l3.78,14.59c.43,1.66-.3,3.09-1.66,3.09H115.84c-1.36,0-2.1-1.43-1.66-3.09L118,129a2.26,2.26,0,0,1,2.1-1.59h18.48m0-1H120.06a3.25,3.25,0,0,0-3.07,2.34l-3.78,14.58a3.82,3.82,0,0,0,.51,3.32,2.65,2.65,0,0,0,2.12,1h26.93a2.61,2.61,0,0,0,2.11-1,3.83,3.83,0,0,0,.52-3.32l-3.79-14.58a3.23,3.23,0,0,0-3.07-2.34Z"/>
    <path id="MouthBack" class="cls-3"
          d="M101.81,107.55h59a0,0,0,0,1,0,0V119a12.62,12.62,0,0,1-12.62,12.62H114.43A12.62,12.62,0,0,1,101.81,119V107.55A0,0,0,0,1,101.81,107.55Z"/>
    <path class="cls-1"
          d="M71.53,135.14c-5.82,0-10.56-5.24-10.56-11.67v-74c0-6.44,4.74-11.68,10.56-11.68H181.45c5.82,0,10.56,5.24,10.56,11.68v74c0,6.43-4.74,11.67-10.56,11.67Z"/>
    <path class="cls-2"
          d="M181.45,38.31c5.56,0,10.06,5,10.06,11.18v74c0,6.17-4.5,11.17-10.06,11.17H71.53c-5.55,0-10.06-5-10.06-11.17v-74c0-6.17,4.51-11.18,10.06-11.18H181.45m0-1H71.53c-6.1,0-11.06,5.46-11.06,12.18v74c0,6.71,5,12.17,11.06,12.17H181.45c6.1,0,11.06-5.46,11.06-12.17v-74c0-6.72-5-12.18-11.06-12.18Z"/>
    <path class="cls-4"
          d="M71.11,123.47v-74A11.18,11.18,0,0,1,82.28,38.31H72.65A11.19,11.19,0,0,0,61.47,49.49v74a11.18,11.18,0,0,0,11.18,11.17h9.63A11.17,11.17,0,0,1,71.11,123.47Z"/>
    <path class="cls-5" d="M95.79,91.79a14.35,14.35,0,1,1,14.34-14.34A14.36,14.36,0,0,1,95.79,91.79Z"/>
    <path class="cls-2"
          d="M95.79,63.6A13.85,13.85,0,1,1,81.94,77.45,13.84,13.84,0,0,1,95.79,63.6m0-1a14.85,14.85,0,1,0,14.84,14.85A14.86,14.86,0,0,0,95.79,62.6Z"/>
    <path class="cls-5" d="M162,94.2a16.76,16.76,0,1,1,16.75-16.75A16.77,16.77,0,0,1,162,94.2Z"/>
    <path class="cls-2"
          d="M162,61.19a16.26,16.26,0,1,1-16.25,16.26A16.25,16.25,0,0,1,162,61.19m0-1a17.26,17.26,0,1,0,17.25,17.26A17.27,17.27,0,0,0,162,60.19Z"/>
    <path class="cls-1" d="M52.39,95.4a5.86,5.86,0,0,1-5.86-5.86V71.37a5.86,5.86,0,0,1,5.86-5.86h8.38V95.4Z"/>
    <path class="cls-2"
          d="M60.27,66V94.9H52.39A5.35,5.35,0,0,1,47,89.54V71.37A5.35,5.35,0,0,1,52.39,66h7.88m1-1H52.39A6.36,6.36,0,0,0,46,71.37V89.54a6.36,6.36,0,0,0,6.36,6.36h8.88V65Z"/>
    <path class="cls-1" d="M192.21,95.4V65.51h8.39a5.87,5.87,0,0,1,5.86,5.86V89.54a5.86,5.86,0,0,1-5.86,5.86Z"/>
    <path class="cls-2"
          d="M200.6,66A5.36,5.36,0,0,1,206,71.37V89.54a5.36,5.36,0,0,1-5.36,5.36h-7.89V66h7.89m0-1h-8.89V95.9h8.89A6.37,6.37,0,0,0,207,89.54V71.37A6.37,6.37,0,0,0,200.6,65Z"/>
    <path class="cls-6"
          d="M172.85,43.73c6.49-.7,9.57,1.34,10.83,2.41C188,49.82,188.19,56.83,188.5,69c.06,2.56,0,4.66,0,6"/>
    <path class="cls-6" d="M188.5,79.25v4.82"/>
    <line class="cls-7" x1="101.81" y1="119.59" x2="159.6" y2="119.59"/>
    <rect class="cls-8" x="127.09" y="107.55" width="8.43" height="12.04"/>
    <rect class="cls-8" x="143.95" y="107.55" width="8.43" height="12.04"/>
    <rect class="cls-8" x="110.24" y="107.55" width="8.43" height="12.04"/>
    <rect class="cls-8" x="118.66" y="107.55" width="8.43" height="12.04"/>
    <rect class="cls-8" x="101.81" y="107.55" width="8.43" height="12.04"/>
    <rect class="cls-8" x="135.52" y="107.55" width="8.43" height="12.04"/>
    <rect class="cls-8" x="152.38" y="107.55" width="8.43" height="12.04"/>
    <path class="cls-7"
          d="M111.44,11.22c4.23.94,16.35,3.95,24.08,10.84,3.48,3.1,4.44,5.53,4.82,7.22a12.92,12.92,0,0,1-1.21,8.43"/>
    <ellipse class="cls-9" cx="104.82" cy="10.02" rx="7.83" ry="6.02"/>
    <circle class="cls-5" cx="95.79" cy="77.45" r="9.53"/>
    <path class="cls-2" d="M95.79,68.42a9,9,0,1,1-9,9,9,9,0,0,1,9-9m0-1a10,10,0,1,0,10,10,10,10,0,0,0-10-10Z"/>
    <path class="cls-1"
          d="M92.07,243.5c-3.87,0-7-4.48-7-10V170.62c0-5.51,3.15-10,7-10h71.25c3.87,0,7,4.48,7,10V233.5c0,5.52-3.15,10-7,10Z"/>
    <path class="cls-2"
          d="M163.32,161.13c3.6,0,6.52,4.25,6.52,9.49V233.5c0,5.25-2.92,9.5-6.52,9.5H92.07c-3.6,0-6.52-4.25-6.52-9.5V170.62c0-5.24,2.92-9.49,6.52-9.49h71.25m0-1H92.07c-4.14,0-7.52,4.7-7.52,10.49V233.5c0,5.79,3.38,10.5,7.52,10.5h71.25c4.14,0,7.52-4.71,7.52-10.5V170.62c0-5.79-3.38-10.49-7.52-10.49Z"/>
    <path class="cls-6" d="M157.8,165.34a5.71,5.71,0,0,1,6.26,2.41c2.5,3.68,2.6,10.69,2.78,22.87,0,2.57,0,4.67,0,6"/>
    <path class="cls-6" d="M166.84,200.86v4.82"/>
    <rect class="cls-10" x="98.2" y="172.56" width="60.2" height="31.3" rx="3.28"/>
    <path class="cls-11" d="M107.23,220.62a6.52,6.52,0,1,1,6.52-6.52A6.52,6.52,0,0,1,107.23,220.62Z"/>
    <path class="cls-2" d="M107.23,208.08a6,6,0,1,1-6,6,6,6,0,0,1,6-6m0-1a7,7,0,1,0,7,7,7,7,0,0,0-7-7Z"/>
    <path class="cls-12" d="M128.3,220.62a6.52,6.52,0,1,1,6.52-6.52A6.52,6.52,0,0,1,128.3,220.62Z"/>
    <path class="cls-2" d="M128.3,208.08a6,6,0,1,1-6,6,6,6,0,0,1,6-6m0-1a7,7,0,1,0,7,7,7,7,0,0,0-7-7Z"/>
    <path class="cls-13" d="M149.37,220.62a6.52,6.52,0,1,1,6.52-6.52A6.52,6.52,0,0,1,149.37,220.62Z"/>
    <path class="cls-2" d="M149.37,208.08a6,6,0,1,1-6,6,6,6,0,0,1,6-6m0-1a7,7,0,1,0,7,7,7,7,0,0,0-7-7Z"/>
    <path class="cls-1"
          d="M93.41,160.42c-3.15,0-7.08-.61-8.17-1.74l-14-14.58a1.62,1.62,0,0,1-.49-1.84c.56-1.32,3.18-2.1,7-2.1h99.93c3.83,0,6.45.78,7,2.1a1.62,1.62,0,0,1-.49,1.84l-14,14.58c-1.09,1.13-5,1.74-8.17,1.74Z"/>
    <path class="cls-2"
          d="M177.66,140.66c5.05,0,7.77,1.42,6.16,3.09l-14,14.58c-.86.89-4.34,1.59-7.81,1.59H93.41c-3.47,0-7-.7-7.81-1.59l-14-14.58c-1.61-1.67,1.11-3.09,6.16-3.09h99.93m0-1H77.73c-1.94,0-6.55.23-7.47,2.41a2.07,2.07,0,0,0,.59,2.37l14,14.58c1.2,1.25,5.2,1.9,8.53,1.9H162c3.33,0,7.33-.65,8.53-1.9l14-14.58a2.07,2.07,0,0,0,.59-2.37c-.92-2.18-5.53-2.41-7.47-2.41Z"/>
    <path class="cls-14" d="M78.93,153.3c-3.25,3.39-16.17,17.6-16.85,39.73a60.44,60.44,0,0,0,10.83,36.12"/>
    <path class="cls-14" d="M176.86,152.75c3.26,3.38,16.17,17.6,16.86,39.73a60.49,60.49,0,0,1-10.84,36.12"/>
    <ellipse class="cls-9" cx="72.31" cy="229.15" rx="7.83" ry="6.02"/>
    <ellipse class="cls-9" cx="183.08" cy="229.15" rx="7.83" ry="6.02"/>
</svg>