<svg id="Layer_1" data-name="Layer 1" xmlns="http://www.w3.org/2000/svg" viewBox="0 0 99 61"><defs><style>.cls-1,.cls-3{fill:#fff;}.cls-2,.cls-4{fill:#1292ee;}.cls-3{stroke:#1292ee;}.cls-3,.cls-4{stroke-miterlimit:10;}.cls-4{stroke:#fff;}</style></defs><g id="Elefant"><rect class="cls-1" x="30.66" y="31.47" width="16.82" height="27.32" rx="2.5"/><path class="cls-1" d="M45,32a2,2,0,0,1,2,2V56.29a2,2,0,0,1-2,2H33.16a2,2,0,0,1-2-2V34a2,2,0,0,1,2-2H45m0-1H33.16a3,3,0,0,0-3,3V56.29a3,3,0,0,0,3,3H45a3,3,0,0,0,3-3V34a3,3,0,0,0-3-3Z"/><rect class="cls-1" x="65.27" y="31.47" width="16.82" height="27.32" rx="2.5"/><path class="cls-1" d="M79.59,32a2,2,0,0,1,2,2V56.29a2,2,0,0,1-2,2H67.77a2,2,0,0,1-2-2V34a2,2,0,0,1,2-2H79.59m0-1H67.77a3,3,0,0,0-3,3V56.29a3,3,0,0,0,3,3H79.59a3,3,0,0,0,3-3V34a3,3,0,0,0-3-3Z"/><path class="cls-1" d="M46,45.05a16.09,16.09,0,1,1,0-32.18H70.39a16.09,16.09,0,1,1,0,32.18Z"/><path class="cls-2" d="M70.39,13.37a15.59,15.59,0,1,1,0,31.18H46a15.59,15.59,0,1,1,0-31.18H70.39m0-1H46A16.59,16.59,0,0,0,29.39,29h0A16.59,16.59,0,0,0,46,45.55H70.39A16.59,16.59,0,0,0,87,29h0A16.59,16.59,0,0,0,70.39,12.37Z"/><path class="cls-3" d="M79.78,41.82C93.9,47,97.28,47.35,97.39,46.51s-3.17-2.51-6.7-7.38a36.79,36.79,0,0,1-4.58-8.6"/><rect class="cls-3" x="16.58" y="2.32" width="44.4" height="33.18" rx="16.59" transform="translate(77.56 37.82) rotate(180)"/><path class="cls-3" d="M23.43,32.37c-16.64,11-20.58,12.31-20.66,11S6.59,38.83,11,30.52a82.6,82.6,0,0,0,5.79-14.34"/><path class="cls-4" d="M24.41,39.13a31,31,0,0,0,2.13-10.07H30a22.74,22.74,0,0,1-2.77,10.07Zm2.11-18.55v-6H30v6Z"/><path class="cls-4" d="M40,32.59a23.74,23.74,0,0,0,4-13.88A23.43,23.43,0,0,0,40,4.94h3c2.07,2.52,4.28,7,4.28,13.79S45.1,30,43,32.59Z"/></g></svg>