<svg id="Layer_1" xmlns="http://www.w3.org/2000/svg" viewBox="0 0 309.28 68.77"><defs><style>.cls-1,.cls-3{fill:#fff;}.cls-2,.cls-4{fill:#1292ee;}.cls-3{stroke:#1292ee;}.cls-3,.cls-4{stroke-miterlimit:10;}.cls-4{stroke:#fff;}</style></defs><g id="Elefant"><rect class="cls-1" x="28.39" y="29.65" width="16.82" height="27.32" rx="2.5"/><path class="cls-1" d="M47.48,37a2,2,0,0,1,2,2V61.29a2,2,0,0,1-2,2H35.66a2,2,0,0,1-2-2V39a2,2,0,0,1,2-2H47.48m0-1H35.66a3,3,0,0,0-3,3V61.29a3,3,0,0,0,3,3H47.48a3,3,0,0,0,3-3V39a3,3,0,0,0-3-3Z" transform="translate(-4.77 -6.82)"/><rect class="cls-1" x="63" y="29.65" width="16.82" height="27.32" rx="2.5"/><path class="cls-1" d="M82.09,37a2,2,0,0,1,2,2V61.29a2,2,0,0,1-2,2H70.27a2,2,0,0,1-2-2V39a2,2,0,0,1,2-2H82.09m0-1H70.27a3,3,0,0,0-3,3V61.29a3,3,0,0,0,3,3H82.09a3,3,0,0,0,3-3V39a3,3,0,0,0-3-3Z" transform="translate(-4.77 -6.82)"/><path class="cls-1" d="M48.48,50.05a16.09,16.09,0,0,1,0-32.18H72.89a16.09,16.09,0,1,1,0,32.18Z" transform="translate(-4.77 -6.82)"/><path class="cls-2" d="M72.89,18.37a15.59,15.59,0,1,1,0,31.18H48.48a15.59,15.59,0,0,1,0-31.18H72.89m0-1H48.48A16.59,16.59,0,0,0,31.89,34h0A16.59,16.59,0,0,0,48.48,50.55H72.89A16.59,16.59,0,0,0,89.48,34h0A16.59,16.59,0,0,0,72.89,17.37Z" transform="translate(-4.77 -6.82)"/><path class="cls-3" d="M82.28,46.82C96.4,52,99.78,52.35,99.89,51.51s-3.17-2.51-6.7-7.38a36.79,36.79,0,0,1-4.58-8.6" transform="translate(-4.77 -6.82)"/><rect class="cls-3" x="19.08" y="7.32" width="44.4" height="33.18" rx="16.59" transform="translate(77.79 41) rotate(180)"/><path class="cls-3" d="M25.93,37.37c-16.64,11-20.58,12.31-20.66,11s3.82-4.57,8.18-12.88a82.6,82.6,0,0,0,5.79-14.34" transform="translate(-4.77 -6.82)"/><path class="cls-4" d="M26.91,44.13A31,31,0,0,0,29,34.06h3.44a22.74,22.74,0,0,1-2.77,10.07ZM29,25.58v-6h3.47v6Z" transform="translate(-4.77 -6.82)"/><path class="cls-4" d="M42.53,37.59a23.74,23.74,0,0,0,4-13.88,23.43,23.43,0,0,0-4-13.77h3c2.07,2.52,4.28,7,4.28,13.79S47.6,35,45.53,37.59Z" transform="translate(-4.77 -6.82)"/></g><path class="cls-1" d="M111,54.36a18.54,18.54,0,0,0,8.48,2.42c3.69,0,5.34-1.55,5.34-3.73s-1.37-3.39-5.45-4.84c-6.5-2.23-9.21-5.77-9.18-9.7,0-5.84,4.85-10.4,12.6-10.4a19.11,19.11,0,0,1,8.81,2L129.91,36a15.13,15.13,0,0,0-7-1.91c-3,0-4.65,1.48-4.65,3.52s1.6,3.12,5.8,4.65c6.05,2.14,8.84,5.22,8.86,10.12,0,6.06-4.71,10.43-13.49,10.43a21.46,21.46,0,0,1-10.12-2.33Z" transform="translate(-4.77 -6.82)"/><path class="cls-1" d="M164.2,61.08a23.6,23.6,0,0,1-9.37,1.72c-10.42,0-17.13-6.68-17.13-17,0-10,6.8-17.68,18.48-17.68a21.73,21.73,0,0,1,8.11,1.52L162.8,36a14.29,14.29,0,0,0-6.35-1.29c-6.41,0-10.2,4.68-10.17,10.77,0,6.81,4.47,10.72,10.2,10.72a16.53,16.53,0,0,0,6.59-1.31Z" transform="translate(-4.77 -6.82)"/><path class="cls-1" d="M170.47,13.63h8.4V33.39H179a12,12,0,0,1,9.92-5.28c5.64,0,11.61,3.75,11.61,14.41V62.08h-8.41V43.44c0-4.81-1.74-8.48-6.38-8.48a6.93,6.93,0,0,0-6.51,4.72,7.2,7.2,0,0,0-.37,2.53V62.08h-8.4Z" transform="translate(-4.77 -6.82)"/><path class="cls-1" d="M209.5,38.74c0-3.84-.12-7-.28-9.88h7.34l.42,5h.19a12.1,12.1,0,0,1,10.59-5.74c5.79,0,11.81,3.73,11.81,14.24V62.08h-8.41V43.34c0-4.77-1.75-8.4-6.34-8.4a7,7,0,0,0-6.53,4.93,8.21,8.21,0,0,0-.39,2.67V62.08h-8.4Z" transform="translate(-4.77 -6.82)"/><path class="cls-1" d="M267.21,62.08l-.57-3.7h-.2a12.16,12.16,0,0,1-9.79,4.45c-6.74,0-10.48-4.81-10.48-9.88,0-8.38,7.47-12.62,19.71-12.57v-.55c0-2.19-.87-5.82-6.75-5.8a17.7,17.7,0,0,0-8.93,2.48l-1.66-5.45a24.07,24.07,0,0,1,12-2.95c10.65,0,13.69,6.72,13.69,14v12a49.27,49.27,0,0,0,.52,8ZM266.1,45.81c-5.93-.08-11.6,1.17-11.6,6.23a4.44,4.44,0,0,0,4.79,4.79,6.86,6.86,0,0,0,6.58-4.6,6.31,6.31,0,0,0,.23-1.82Z" transform="translate(-4.77 -6.82)"/><path class="cls-1" d="M305.41,57.5h-.15c-1.95,3.21-5.43,5.33-10.29,5.33-7.46,0-13.9-6.5-13.9-16.86,0-12.15,7.77-17.86,14.84-17.86,4.68,0,7.9,2,9.68,5.13l.13,0,.25-4.4h8.08c-.12,3-.25,6.15-.25,9.6V75.59h-8.39Zm0-14.93a9.2,9.2,0,0,0-.22-2A7.38,7.38,0,0,0,298,34.7c-5.4,0-8.43,4.58-8.43,10.89,0,6,2.9,10.61,8.27,10.61A7.43,7.43,0,0,0,305,50.66a8.85,8.85,0,0,0,.38-2.55Z" transform="translate(-4.77 -6.82)"/></svg>