<svg id="Layer_1" data-name="Layer 1" xmlns="http://www.w3.org/2000/svg" viewBox="0 0 99 63"><defs><style>.cls-1{fill:#3fa9f5;}.cls-2,.cls-4{fill:#fff;}.cls-3{fill:#1292ee;}.cls-4{stroke:#3fa9f5;stroke-miterlimit:10;}</style></defs><g id="Elefant"><rect class="cls-1" x="30.66" y="32.47" width="16.82" height="27.32" rx="2.5"/><path class="cls-2" d="M45,33a2,2,0,0,1,2,2V57.29a2,2,0,0,1-2,2H33.16a2,2,0,0,1-2-2V35a2,2,0,0,1,2-2H45m0-1H33.16a3,3,0,0,0-3,3V57.29a3,3,0,0,0,3,3H45a3,3,0,0,0,3-3V35a3,3,0,0,0-3-3Z"/><rect class="cls-1" x="65.27" y="32.47" width="16.82" height="27.32" rx="2.5"/><path class="cls-2" d="M79.59,33a2,2,0,0,1,2,2V57.29a2,2,0,0,1-2,2H67.77a2,2,0,0,1-2-2V35a2,2,0,0,1,2-2H79.59m0-1H67.77a3,3,0,0,0-3,3V57.29a3,3,0,0,0,3,3H79.59a3,3,0,0,0,3-3V35a3,3,0,0,0-3-3Z"/><rect class="cls-2" x="29.39" y="15.37" width="57.6" height="33.18" rx="16.59"/><path class="cls-2" d="M78.7,42.39c13.8,6,17.15,6.52,17.31,5.69s-3-2.69-6.27-7.75a36.67,36.67,0,0,1-4.07-8.85"/><rect class="cls-3" x="29.39" y="13.37" width="57.6" height="33.18" rx="16.59"/><path class="cls-3" d="M78.7,40.39c13.8,6,17.15,6.52,17.31,5.69s-3-2.69-6.27-7.75a36.67,36.67,0,0,1-4.07-8.85"/><rect class="cls-2" x="19.58" y="5.32" width="44.4" height="33.18" rx="16.59"/><rect class="cls-1" x="16.58" y="3.32" width="44.4" height="33.18" rx="16.59"/><path class="cls-1" d="M23.43,33.37c-16.64,11-20.58,12.31-20.66,11S6.59,39.83,11,31.52a82.6,82.6,0,0,0,5.79-14.34"/><path class="cls-4" d="M24.09,40.5a33.35,33.35,0,0,0,2.79-11.07h5.55A21,21,0,0,1,28.31,40.5Zm2.65-17.22V16.6h5.84v6.68Z"/><path class="cls-4" d="M40.81,35a32.25,32.25,0,0,0,3.44-15.31A32,32,0,0,0,40.81,4.46h4.65c1.86,2.83,4.06,7.88,4.06,15.26s-2.2,12.4-4.06,15.3Z"/></g></svg>