<svg width="1440" height="500" viewBox="0 0 1440 500" fill="none" xmlns="http://www.w3.org/2000/svg">
    <rect width="1440" height="500" fill="#2194EB"/>
    <path d="M360 4.00003H1438V487C1053.82 496.681 305.5 480.63 552.5 343C799.5 205.37 360 93 360 93V4.00003Z"
          fill="#4CACF4"/>
    <path d="M0 0H1440V51.873C1333.61 51.873 1281.05 36.3094 1189 36.3094C931.044 36.3094 698.256 100 453 100C323.177 100 157.818 50 0 50V0Z"
          fill="#4CACF4"/>
    <path d="M1440 0H0C106.395 0 160.946 0 253 0C510.956 0 741.744 100 987 100C1116.82 100 1282.18 50 1440 50V0Z"
          fill="#2194EB"/>
    <ellipse cx="276.5" cy="256" rx="249.5" ry="75" fill="#4CACF4"/>
</svg>