<svg id="Ebene_1" xmlns="http://www.w3.org/2000/svg" viewBox="0 0 662 149">
    <defs>
        <style>
            .cls-1{fill:#2a3b47;}.cls-2,.cls-3{fill:#1292ee;}.cls-3{stroke:#fff;stroke-miterlimit:10;stroke-width:5px;}
        </style>
    </defs>
    <path class="cls-1"
          d="M309.46,67.86q0,21.21-11.51,32.43t-33.14,11.23H241.08V25.85h26.25q20,0,31.06,11.08T309.46,67.86Zm-10.55.35q0-16.75-8.41-25.25t-25-8.5H251V102.9h12.13q17.81,0,26.78-8.76T298.91,68.21Z"/>
    <path class="cls-1"
          d="M326.28,29.89c0-2.22.54-3.85,1.64-4.89a6.07,6.07,0,0,1,8.14,0,6.37,6.37,0,0,1,1.7,4.86,6.48,6.48,0,0,1-1.7,4.9,5.68,5.68,0,0,1-4,1.61,5.63,5.63,0,0,1-4.1-1.61A6.58,6.58,0,0,1,326.28,29.89Zm10.54,81.63H327.1V47.3h9.72Z"/>
    <path class="cls-1"
          d="M396.94,111.52,395,102.37h-.47q-4.82,6-9.58,8.18A29.33,29.33,0,0,1,373,112.69q-9.54,0-15-4.92t-5.42-14q0-19.45,31.12-20.39L394.65,73V69c0-5-1.08-8.76-3.25-11.16s-5.63-3.6-10.4-3.6q-8,0-18.16,4.92l-3-7.44a46.87,46.87,0,0,1,21.74-5.51q11.48,0,17,5.1t5.54,16.35v43.83Zm-22-6.86q9.07,0,14.26-5t5.19-14v-5.8l-9.73.41Q373.1,80.76,368,84t-5.13,9.93q0,5.27,3.19,8T375,104.66Z"/>
    <path class="cls-1" d="M433.91,111.52h-9.72V20.34h9.72Z"/>
    <path class="cls-1"
          d="M510,79.35q0,15.7-7.91,24.52t-21.86,8.82a28.9,28.9,0,0,1-15.29-4A26.65,26.65,0,0,1,454.6,97,40.29,40.29,0,0,1,451,79.35q0-15.7,7.85-24.47t21.8-8.76q13.49,0,21.42,9T510,79.35Zm-48.93,0q0,12.3,4.92,18.75t14.48,6.44q9.54,0,14.5-6.41t4.95-18.78q0-12.25-4.95-18.61t-14.62-6.35q-9.56,0-14.42,6.27T461,79.35Z"/>
    <path class="cls-1"
          d="M579.58,47.3v6.15l-11.9,1.4a20.95,20.95,0,0,1,4.22,12.84q0,9.44-6.44,15.06t-17.7,5.62a29.71,29.71,0,0,1-5.39-.47q-6.21,3.28-6.21,8.26a4.19,4.19,0,0,0,2.17,3.9q2.16,1.26,7.44,1.26h11.37q10.43,0,16,4.39t5.6,12.78q0,10.67-8.56,16.26t-25,5.59q-12.6,0-19.42-4.68A15.15,15.15,0,0,1,519,122.41a14.86,14.86,0,0,1,3.75-10.13,19.08,19.08,0,0,1,10.55-5.8,10.24,10.24,0,0,1-4.13-3.46,9.1,9.1,0,0,1-1.67-5.45,10.34,10.34,0,0,1,1.87-6.15,19.63,19.63,0,0,1,5.92-5.1,17.38,17.38,0,0,1-8.12-7A20.48,20.48,0,0,1,524,68.1q0-10.54,6.33-16.26t17.93-5.72a32.65,32.65,0,0,1,9.08,1.18Zm-51.21,75a8.72,8.72,0,0,0,4.39,7.91q4.4,2.68,12.6,2.69,12.24,0,18.13-3.66t5.89-9.93q0-5.22-3.22-7.24t-12.13-2H542.37q-6.61,0-10.31,3.16T528.37,122.3Zm5.27-54.44c0,4.5,1.27,7.89,3.81,10.2s6.07,3.46,10.6,3.46q14.25,0,14.24-13.83,0-14.47-14.41-14.48-6.86,0-10.55,3.7T533.64,67.86Z"/>
    <path class="cls-1"
          d="M648.19,79.35q0,15.7-7.91,24.52t-21.86,8.82a28.9,28.9,0,0,1-15.29-4A26.65,26.65,0,0,1,592.82,97a40.43,40.43,0,0,1-3.63-17.69q0-15.7,7.85-24.47t21.79-8.76q13.49,0,21.42,9T648.19,79.35Zm-48.93,0q0,12.3,4.93,18.75t14.47,6.44q9.55,0,14.5-6.41t5-18.78q0-12.25-5-18.61t-14.62-6.35q-9.56,0-14.41,6.27T599.26,79.35Z"/>
    <path class="cls-2"
          d="M141.22,26.11c29,0,52.48,19.5,52.48,43.56,0,10.07-4.12,19.33-11,26.7L192.29,119l-23-12.54a60.28,60.28,0,0,1-28.09,6.77c-29,0-52.48-19.5-52.48-43.56S112.23,26.11,141.22,26.11Z"/>
    <path class="cls-3"
          d="M76.33,7.8c-34.59,0-62.64,23.28-62.64,52,0,12,4.92,23.06,13.17,31.86l-11.49,27,27.44-15a71.93,71.93,0,0,0,33.52,8.08c34.6,0,62.65-23.28,62.65-52S110.93,7.8,76.33,7.8Z"/>
</svg>