<svg id="Layer_1" xmlns="http://www.w3.org/2000/svg" viewBox="0 0 300.09 69.82">
    <defs>
        <style>
            .cls-1{fill:#4d4d4d;}.cls-2{fill:#3fa9f5;}.cls-3,.cls-5{fill:#fff;}.cls-4{fill:#1292ee;}.cls-5{stroke:#3fa9f5;stroke-miterlimit:10;}
        </style>
    </defs>
    <g id="Elefant">
        <path class="cls-1"
              d="M206.88,253.74c0-3.84-.12-7-.28-9.88h7.18l.38,4.88h.2a11.45,11.45,0,0,1,10.23-5.63,9.53,9.53,0,0,1,9.21,6.13h.14a13.51,13.51,0,0,1,4.06-4.17,11.44,11.44,0,0,1,6.75-2c5.5,0,11.09,3.76,11.09,14.42v19.55h-8.19V258.71c0-5.54-1.92-8.79-5.93-8.79a6.32,6.32,0,0,0-5.84,4.42,9.45,9.45,0,0,0-.42,2.81v19.93h-8.2V257.87c0-4.67-1.87-8-5.73-8-3.15,0-5.25,2.47-6,4.75a8.47,8.47,0,0,0-.42,2.78v19.63h-8.19Z"
              transform="translate(-105.77 -222.32)"/>
        <path class="cls-1"
              d="M270.65,262.8c.23,6,4.88,8.65,10.26,8.65a25.33,25.33,0,0,0,9.17-1.54l1.24,5.78a30,30,0,0,1-11.61,2.11c-10.78,0-17.1-6.66-17.1-16.84,0-9.17,5.56-17.85,16.25-17.85s14.31,8.88,14.31,16.16a17.64,17.64,0,0,1-.3,3.53Zm14.61-5.86c0-3.07-1.3-8.09-6.93-8.09-5.17,0-7.32,4.69-7.69,8.09Z"
              transform="translate(-105.77 -222.32)"/>
        <path class="cls-1"
              d="M305.86,262.8c.22,6,4.88,8.65,10.26,8.65a25.37,25.37,0,0,0,9.17-1.54l1.24,5.78a30,30,0,0,1-11.61,2.11c-10.79,0-17.1-6.66-17.1-16.84,0-9.17,5.56-17.85,16.24-17.85s14.32,8.88,14.32,16.16a17.64,17.64,0,0,1-.3,3.53Zm14.61-5.86c0-3.07-1.3-8.09-6.93-8.09-5.17,0-7.32,4.69-7.69,8.09Z"
              transform="translate(-105.77 -222.32)"/>
        <path class="cls-1"
              d="M344.77,234.35v9.51h8v6.26h-8v14.66c0,4.07,1.08,6.13,4.29,6.13a12.75,12.75,0,0,0,3.26-.36l.17,6.39a18.89,18.89,0,0,1-6.11.86,9.71,9.71,0,0,1-7.22-2.74c-1.8-1.91-2.63-5-2.63-9.32V250.12h-4.74v-6.26h4.74v-7.52Z"
              transform="translate(-105.77 -222.32)"/>
        <path class="cls-1" d="M359.11,228.63h8.4v48.45h-8.4Z" transform="translate(-105.77 -222.32)"/>
        <path class="cls-1"
              d="M381.89,243.86l6,17.81c.66,2.06,1.38,4.6,1.87,6.44h.19c.52-1.86,1.14-4.36,1.76-6.51l5.21-17.74h8.95l-8.32,22.67c-4.56,12.4-7.64,17.91-11.55,21.36a17.41,17.41,0,0,1-8.81,4.25l-1.9-7.07a15.16,15.16,0,0,0,4.85-2.3,14.57,14.57,0,0,0,4.62-5.29,3.25,3.25,0,0,0,.53-1.48,4.07,4.07,0,0,0-.45-1.63l-12.2-30.51Z"
              transform="translate(-105.77 -222.32)"/>
        <rect class="cls-2" x="27.89" y="29.15" width="16.82" height="27.32" rx="2.5"/>
        <path class="cls-3"
              d="M148,252a2,2,0,0,1,2,2v22.32a2,2,0,0,1-2,2H136.16a2,2,0,0,1-2-2V254a2,2,0,0,1,2-2H148m0-1H136.16a3,3,0,0,0-3,3v22.32a3,3,0,0,0,3,3H148a3,3,0,0,0,3-3V254a3,3,0,0,0-3-3Z"
              transform="translate(-105.77 -222.32)"/>
        <rect class="cls-2" x="62.5" y="29.15" width="16.82" height="27.32" rx="2.5"/>
        <path class="cls-3"
              d="M182.59,252a2,2,0,0,1,2,2v22.32a2,2,0,0,1-2,2H170.77a2,2,0,0,1-2-2V254a2,2,0,0,1,2-2h11.82m0-1H170.77a3,3,0,0,0-3,3v22.32a3,3,0,0,0,3,3h11.82a3,3,0,0,0,3-3V254a3,3,0,0,0-3-3Z"
              transform="translate(-105.77 -222.32)"/>
        <rect class="cls-3" x="26.61" y="12.05" width="57.6" height="33.18" rx="16.59"/>
        <path class="cls-3" d="M181.7,261.39c13.8,6,17.15,6.52,17.31,5.69s-3-2.69-6.27-7.75a36.67,36.67,0,0,1-4.07-8.85"
              transform="translate(-105.77 -222.32)"/>
        <rect class="cls-4" x="26.61" y="10.05" width="57.6" height="33.18" rx="16.59"/>
        <path class="cls-4" d="M181.7,259.39c13.8,6,17.15,6.52,17.31,5.69s-3-2.69-6.27-7.75a36.67,36.67,0,0,1-4.07-8.85"
              transform="translate(-105.77 -222.32)"/>
        <rect class="cls-3" x="16.81" y="2" width="44.4" height="33.18" rx="16.59"/>
        <rect class="cls-2" x="13.81" width="44.4" height="33.18" rx="16.59"/>
        <path class="cls-2"
              d="M126.43,252.37c-16.64,11-20.58,12.31-20.66,11s3.82-4.57,8.18-12.88a82.6,82.6,0,0,0,5.79-14.34"
              transform="translate(-105.77 -222.32)"/>
        <path class="cls-5"
              d="M127.09,259.5a33.35,33.35,0,0,0,2.79-11.07h5.55a21,21,0,0,1-4.12,11.07Zm2.65-17.22V235.6h5.84v6.68Z"
              transform="translate(-105.77 -222.32)"/>
        <path class="cls-5"
              d="M143.81,254a35.66,35.66,0,0,0,0-30.56h4.65c1.86,2.83,4.06,7.88,4.06,15.26s-2.2,12.4-4.06,15.3Z"
              transform="translate(-105.77 -222.32)"/>
    </g>
</svg>