<?xml version="1.0" encoding="utf-8"?>
<!-- Generator: Adobe Illustrator 24.2.1, SVG Export Plug-In . SVG Version: 6.00 Build 0)  -->
<svg version="1.1" id="Layer_1" xmlns="http://www.w3.org/2000/svg" x="0px" y="0px"
	 viewBox="0 0 320 80" style="enable-background:new 0 0 320 80;" xml:space="preserve">
<style type="text/css">
	.st0{fill:#3FA9F5;}
	.st1{fill:#FFFFFF;}
	.st2{fill:#1292EE;}
	.st3{fill:#FFFFFF;stroke:#3FA9F5;stroke-miterlimit:10;}
	.st4{fill:#4D4D4D;}
</style>
<g id="Elefant">
	<g>
		<path class="st0" d="M35.66,63.79c-1.38,0-2.5-1.12-2.5-2.5V38.97c0-1.38,1.12-2.5,2.5-2.5h11.82c1.38,0,2.5,1.12,2.5,2.5v22.32
			c0,1.38-1.12,2.5-2.5,2.5H35.66z"/>
		<path class="st1" d="M47.48,36.97c1.1,0,2,0.9,2,2v22.32c0,1.1-0.9,2-2,2H35.66c-1.1,0-2-0.9-2-2V38.97c0-1.1,0.9-2,2-2H47.48
			 M47.48,35.97H35.66c-1.65,0-3,1.35-3,3v22.32c0,1.65,1.35,3,3,3h11.82c1.65,0,3-1.35,3-3V38.97
			C50.48,37.32,49.14,35.97,47.48,35.97L47.48,35.97z"/>
	</g>
	<g>
		<path class="st0" d="M70.27,63.79c-1.38,0-2.5-1.12-2.5-2.5V38.97c0-1.38,1.12-2.5,2.5-2.5h11.82c1.38,0,2.5,1.12,2.5,2.5v22.32
			c0,1.38-1.12,2.5-2.5,2.5H70.27z"/>
		<path class="st1" d="M82.09,36.97c1.1,0,2,0.9,2,2v22.32c0,1.1-0.9,2-2,2H70.27c-1.1,0-2-0.9-2-2V38.97c0-1.1,0.9-2,2-2H82.09
			 M82.09,35.97H70.27c-1.65,0-3,1.35-3,3v22.32c0,1.65,1.35,3,3,3h11.82c1.65,0,3-1.35,3-3V38.97
			C85.09,37.32,83.75,35.97,82.09,35.97L82.09,35.97z"/>
	</g>
	<g>
		<g>
			<g>
				<path class="st1" d="M72.89,52.55H48.48c-9.16,0-16.59-7.43-16.59-16.59v0c0-9.16,7.43-16.59,16.59-16.59h24.42
					c9.16,0,16.59,7.43,16.59,16.59v0C89.48,45.12,82.05,52.55,72.89,52.55z"/>
				<path class="st1" d="M81.2,46.39c13.8,5.96,17.15,6.52,17.31,5.69c0.16-0.84-3.02-2.69-6.27-7.75c-2.1-3.28-3.34-6.51-4.07-8.85
					"/>
			</g>
			<g>
				<g>
					<g>
						<path class="st2" d="M72.89,50.55H48.48c-9.16,0-16.59-7.43-16.59-16.59v0c0-9.16,7.43-16.59,16.59-16.59h24.42
							c9.16,0,16.59,7.43,16.59,16.59v0C89.48,43.12,82.05,50.55,72.89,50.55z"/>
					</g>
					<path class="st2" d="M81.2,44.39c13.8,5.96,17.15,6.52,17.31,5.69c0.16-0.84-3.02-2.69-6.27-7.75
						c-2.1-3.28-3.34-6.51-4.07-8.85"/>
				</g>
			</g>
		</g>
		<g>
			<g>
				<path class="st1" d="M38.67,42.5h11.22c9.16,0,16.59-7.43,16.59-16.59v0c0-9.16-7.43-16.59-16.59-16.59H38.67
					c-9.16,0-16.59,7.43-16.59,16.59v0C22.08,35.07,29.5,42.5,38.67,42.5z"/>
			</g>
			<g>
				<path class="st0" d="M35.67,40.5h11.22c9.16,0,16.59-7.43,16.59-16.59v0c0-9.16-7.43-16.59-16.59-16.59H35.67
					c-9.16,0-16.59,7.43-16.59,16.59v0C19.08,33.07,26.5,40.5,35.67,40.5z"/>
			</g>
		</g>
		<path class="st0" d="M25.93,37.37C9.29,48.39,5.35,49.68,5.27,48.4c-0.08-1.29,3.82-4.57,8.18-12.88
			c2.83-5.38,4.65-10.59,5.79-14.34"/>
	</g>
	<g>
		<g>
			<path class="st3" d="M26.59,44.5c1.74-3.77,2.64-8.28,2.79-11.07h5.55c-0.39,4.81-2.29,8.8-4.12,11.07H26.59z M29.24,27.28V20.6
				h5.84v6.67H29.24z"/>
		</g>
	</g>
	<g>
		<g>
			<path class="st3" d="M43.31,39.02c1.87-3.42,3.44-8.63,3.44-15.31c0-6.69-1.57-11.84-3.44-15.25h4.65
				c1.86,2.83,4.06,7.88,4.06,15.26c-0.05,7.35-2.19,12.4-4.06,15.3H43.31z"/>
		</g>
	</g>
</g>
<g>
	<g>
		<path class="st4" d="M105.97,54.36c1.85,1.15,5.47,2.42,8.48,2.42c3.7,0,5.35-1.55,5.35-3.73c0-2.25-1.37-3.39-5.46-4.84
			c-6.5-2.23-9.21-5.77-9.18-9.7c0-5.84,4.85-10.4,12.61-10.4c3.66,0,6.86,0.91,8.81,1.98l-1.67,5.9c-1.4-0.79-4.09-1.91-7.03-1.91
			c-2.99,0-4.65,1.47-4.65,3.52c0,2.11,1.6,3.12,5.8,4.65c6.05,2.14,8.83,5.22,8.86,10.12c0,6.06-4.72,10.43-13.49,10.43
			c-4.02,0-7.68-0.96-10.12-2.33L105.97,54.36z"/>
		<path class="st4" d="M159.2,61.08c-1.74,0.82-5.21,1.71-9.38,1.71c-10.41,0-17.13-6.68-17.13-16.99c0-9.95,6.8-17.68,18.48-17.68
			c3.1,0,6.19,0.68,8.11,1.52l-1.49,6.32c-1.35-0.66-3.36-1.3-6.35-1.3c-6.41,0-10.2,4.68-10.17,10.77c0,6.81,4.48,10.72,10.2,10.72
			c2.88,0,4.96-0.62,6.6-1.31L159.2,61.08z"/>
		<path class="st4" d="M165.47,13.63h8.41v19.76h0.14c1.04-1.56,2.45-2.85,4.18-3.8c1.63-0.93,3.65-1.48,5.74-1.48
			c5.65,0,11.61,3.75,11.61,14.41v19.56h-8.41V43.44c0-4.82-1.74-8.48-6.38-8.48c-3.29,0-5.59,2.21-6.51,4.71
			c-0.28,0.72-0.37,1.62-0.37,2.54v19.87h-8.41V13.63z"/>
		<path class="st4" d="M204.5,38.74c0-3.84-0.12-7-0.27-9.88h7.34l0.41,4.99h0.2c1.47-2.58,5.07-5.74,10.59-5.74
			c5.79,0,11.81,3.73,11.81,14.24v19.73h-8.41V43.34c0-4.77-1.75-8.4-6.34-8.4c-3.34,0-5.66,2.36-6.54,4.93
			c-0.26,0.69-0.39,1.71-0.39,2.67v19.55h-8.41V38.74z"/>
		<path class="st4" d="M262.21,62.08l-0.57-3.7h-0.2c-2.01,2.62-5.49,4.45-9.79,4.45c-6.74,0-10.47-4.82-10.47-9.88
			c0-8.38,7.47-12.63,19.71-12.58v-0.55c0-2.18-0.86-5.81-6.75-5.79c-3.25,0-6.67,1.05-8.93,2.48l-1.66-5.45
			c2.51-1.53,6.81-2.95,12.04-2.95c10.65,0,13.7,6.72,13.7,14.01v11.96c0,3.02,0.15,5.95,0.52,8H262.21z M261.1,45.81
			c-5.93-0.08-11.6,1.17-11.6,6.23c0,3.25,2.13,4.79,4.79,4.79c3.35,0,5.77-2.16,6.57-4.6c0.18-0.58,0.23-1.24,0.23-1.83V45.81z"/>
		<path class="st4" d="M300.41,57.5h-0.15c-1.95,3.21-5.43,5.34-10.29,5.34c-7.46,0-13.9-6.5-13.9-16.86
			c0-12.16,7.77-17.86,14.84-17.86c4.68,0,7.9,2,9.68,5.13l0.14,0.02l0.25-4.4h8.08c-0.12,3.02-0.24,6.15-0.24,9.6v37.13h-8.4V57.5z
			 M300.41,42.57c0-0.69-0.06-1.42-0.22-2.05c-0.74-3.13-3.43-5.82-7.17-5.82c-5.39,0-8.43,4.58-8.43,10.88
			c0,6.03,2.9,10.61,8.27,10.61c3.38,0,6.2-2.19,7.17-5.54c0.25-0.76,0.38-1.76,0.38-2.55V42.57z"/>
	</g>
</g>
</svg>
