<?xml version="1.0" encoding="utf-8"?>
<!-- Generator: Adobe Illustrator 24.3.0, SVG Export Plug-In . SVG Version: 6.00 Build 0)  -->
<svg version="1.1" id="Layer_1" xmlns="http://www.w3.org/2000/svg" x="0px" y="0px"
	 viewBox="0 0 1024 1024" style="enable-background:new 0 0 1024 1024;" xml:space="preserve">
<style type="text/css">
	.st0{opacity:0.3;}
	.st1{fill:#1292EE;}
	.st2{fill:#666666;}
	.st3{fill:#1292EE;stroke:#666666;stroke-width:2;stroke-miterlimit:10;}
	.st4{fill:#3FA9F5;}
	.st5{fill:#3FA9F5;stroke:#808080;stroke-width:2;stroke-miterlimit:10;}
	.st6{fill:#FFFFFF;}
	.st7{fill:#FFFFFF;stroke:#FFFFFF;stroke-width:2;stroke-miterlimit:10;}
	.st8{fill:#3FA9F5;stroke:#E6E6E6;stroke-width:2;stroke-miterlimit:10;}
	.st9{fill:#E6E6E6;}
</style>
	<g class="st0">
	<g>
		<g class="st0">
			<g>
				<g>
					<path class="st1" d="M653.65,89.5c0.66,1.4,1.03,2.97,1.03,4.63v0c0,6.03-4.88,10.91-10.91,10.91h-20.64
						c-1.28,0-2.52-0.22-3.66-0.63c1.74,3.71,5.51,6.28,9.88,6.28h20.64c6.03,0,10.91-4.88,10.91-10.91v0
						C660.9,95.03,657.88,91,653.65,89.5z"/>
				</g>
				<path class="st1" d="M655.47,108.61c9.08,3.92,11.28,4.29,11.38,3.74c0.1-0.55-1.99-1.77-4.12-5.09
					c-1.38-2.15-2.19-4.28-2.68-5.82"/>
			</g>
			<g>
				<g>
					<path class="st1" d="M672.36,104.99c-4.06,0-7.37-3.3-7.37-7.37v-5.08c0-4.06,3.3-7.37,7.37-7.37h25.72
						c4.06,0,7.37,3.3,7.37,7.37v5.08c0,4.06-3.3,7.37-7.37,7.37H672.36z"/>
					<path class="st2" d="M698.08,86.17c3.51,0,6.37,2.86,6.37,6.37v5.08c0,3.51-2.86,6.37-6.37,6.37h-25.72
						c-3.51,0-6.37-2.86-6.37-6.37v-5.08c0-3.51,2.86-6.37,6.37-6.37H698.08 M698.08,84.17h-25.72c-4.62,0-8.37,3.75-8.37,8.37v5.08
						c0,4.62,3.75,8.37,8.37,8.37h25.72c4.62,0,8.37-3.75,8.37-8.37v-5.08C706.45,87.92,702.71,84.17,698.08,84.17L698.08,84.17z"/>
				</g>
				<path class="st3" d="M700.19,103.91c9.08,3.92,11.28,4.29,11.38,3.74c0.1-0.55-1.99-1.77-4.12-5.09
					c-1.38-2.15-2.19-4.28-2.68-5.82"/>
			</g>
			<g>
				<g>
					<path class="st4" d="M619.88,104.08h25.72c4.62,0,8.37-3.75,8.37-8.37v-5.08c0-4.62-3.75-8.37-8.37-8.37h-25.72
						c-4.62,0-8.37,3.75-8.37,8.37v5.08C611.51,100.33,615.25,104.08,619.88,104.08z"/>
				</g>
				<path class="st4" d="M616.93,102c-9.08,3.92-11.28,4.29-11.38,3.74c-0.1-0.55,1.99-1.77,4.12-5.09
					c1.38-2.15,2.19-4.28,2.68-5.82"/>
			</g>
			<g>
				<path class="st5" d="M621.48,89.57c22.43,0,22.43,0,22.43,0"/>
				<path class="st5" d="M621.48,92.37c22.43,0,22.43,0,22.43,0"/>
				<path class="st5" d="M621.48,95.17c15.89,0,15.89,0,15.89,0"/>
			</g>
			<g>
				<g>
					<path class="st1" d="M761.89,86.92c0.66,1.4,1.03,2.97,1.03,4.63v0c0,6.03-4.88,10.91-10.91,10.91h-20.64
						c-0.31,0-0.62-0.01-0.93-0.04h-2.43c1.85,3.39,5.44,5.69,9.58,5.69h20.64c6.03,0,10.91-4.88,10.91-10.91v0
						C769.14,92.46,766.12,88.43,761.89,86.92z"/>
				</g>
				<path class="st1" d="M763.72,106.03c9.08,3.92,11.28,4.29,11.38,3.74c0.1-0.55-1.99-1.77-4.12-5.09
					c-1.38-2.15-2.19-4.28-2.68-5.82"/>
			</g>
			<g>
				<g>
					<g>
						<path class="st1" d="M826.79,110.45h-25.72c-4.62,0-8.37-3.75-8.37-8.37V97c0-4.62,3.75-8.37,8.37-8.37h25.72
							c4.62,0,8.37,3.75,8.37,8.37v5.08C835.15,106.7,831.41,110.45,826.79,110.45z"/>
					</g>
					<path class="st1" d="M829.73,108.37c9.08,3.92,11.28,4.29,11.38,3.74c0.1-0.55-1.99-1.77-4.12-5.09
						c-1.38-2.15-2.19-4.28-2.68-5.82"/>
				</g>
				<g>
					<g>
						<path class="st6" d="M796.96,107.81h25.72c4.62,0,8.37-3.75,8.37-8.37v-5.08c0-4.62-3.75-8.37-8.37-8.37h-25.72
							c-4.62,0-8.37,3.75-8.37,8.37v5.08C788.59,104.06,792.34,107.81,796.96,107.81z"/>
						<path class="st6" d="M794.02,105.73c-9.08,3.92-11.28,4.29-11.38,3.74c-0.1-0.55,1.99-1.77,4.12-5.09
							c1.38-2.15,2.19-4.28,2.68-5.82"/>
						<path class="st7" d="M798.56,93.77c22.43,0,22.43,0,22.43,0"/>
						<path class="st7" d="M798.56,96.57c22.43,0,22.43,0,22.43,0"/>
						<path class="st7" d="M798.56,99.38c15.89,0,15.89,0,15.89,0"/>
					</g>
					<g>
						<g>
							<g>
								<g>
									<path class="st4" d="M793.96,105.81h25.72c4.62,0,8.37-3.75,8.37-8.37v-5.08c0-4.62-3.75-8.37-8.37-8.37h-25.72
										c-4.62,0-8.37,3.75-8.37,8.37v5.08C785.59,102.06,789.34,105.81,793.96,105.81z"/>
								</g>
								<path class="st4" d="M791.02,103.73c-9.08,3.92-11.28,4.29-11.38,3.74c-0.1-0.55,1.99-1.77,4.12-5.09
									c1.38-2.15,2.19-4.28,2.68-5.82"/>
							</g>
							<g>
								<path class="st8" d="M795.56,91.77c22.43,0,22.43,0,22.43,0"/>
								<path class="st8" d="M795.56,94.57c22.43,0,22.43,0,22.43,0"/>
								<path class="st8" d="M795.56,97.38c15.89,0,15.89,0,15.89,0"/>
							</g>
						</g>
					</g>
				</g>
			</g>
			<g>
				<g>
					<g>
						<g>
							<path class="st6" d="M733.45,107.24h25.72c4.62,0,8.37-3.75,8.37-8.37v-5.08c0-4.62-3.75-8.37-8.37-8.37h-25.72
								c-4.62,0-8.37,3.75-8.37,8.37v5.08C725.09,103.5,728.83,107.24,733.45,107.24z"/>
							<path class="st6" d="M730.51,105.16c-9.08,3.92-11.28,4.29-11.38,3.74c-0.1-0.55,1.99-1.77,4.12-5.09
								c1.38-2.15,2.19-4.28,2.68-5.82"/>
						</g>
						<g>
							<g>
								<g>
									<g>
										<path class="st4" d="M730.45,105.24h25.72c4.62,0,8.37-3.75,8.37-8.37v-5.08c0-4.62-3.75-8.37-8.37-8.37h-25.72
											c-4.62,0-8.37,3.75-8.37,8.37v5.08C722.09,101.5,725.83,105.24,730.45,105.24z"/>
									</g>
									<path class="st4" d="M727.51,103.16c-9.08,3.92-11.28,4.29-11.38,3.74c-0.1-0.55,1.99-1.77,4.12-5.09
										c1.38-2.15,2.19-4.28,2.68-5.82"/>
								</g>
							</g>
						</g>
					</g>
				</g>
				<g>
					<g>
						<path class="st9" d="M733.21,94.47c0-1.09,0.75-1.86,1.82-1.86c1.07,0,1.8,0.75,1.81,1.86c0,1.09-0.73,1.85-1.82,1.85
							C733.95,96.33,733.21,95.56,733.21,94.47z"/>
						<path class="st9" d="M741.7,94.47c0-1.09,0.75-1.86,1.82-1.86c1.07,0,1.8,0.75,1.81,1.86c0,1.09-0.73,1.85-1.82,1.85
							C742.44,96.33,741.7,95.56,741.7,94.47z"/>
						<path class="st9" d="M750.19,94.47c0-1.09,0.75-1.86,1.82-1.86c1.07,0,1.8,0.75,1.81,1.86c0,1.09-0.73,1.85-1.82,1.85
							C750.94,96.33,750.19,95.56,750.19,94.47z"/>
					</g>
				</g>
			</g>
		</g>
		<g class="st0">
			<g>
				<g>
					<path class="st1" d="M531.47,130.77c0.66,1.4,1.03,2.97,1.03,4.63v0c0,6.03-4.88,10.91-10.91,10.91h-20.64
						c-1.28,0-2.52-0.22-3.66-0.63c1.74,3.71,5.51,6.28,9.88,6.28h20.64c6.03,0,10.91-4.88,10.91-10.91v0
						C538.72,136.31,535.7,132.28,531.47,130.77z"/>
				</g>
				<path class="st1" d="M533.3,149.88c9.08,3.92,11.28,4.29,11.38,3.74c0.1-0.55-1.99-1.77-4.12-5.09
					c-1.38-2.15-2.19-4.28-2.68-5.82"/>
			</g>
			<g>
				<g>
					<path class="st1" d="M550.19,146.26c-4.06,0-7.37-3.3-7.37-7.37v-5.08c0-4.06,3.3-7.37,7.37-7.37h25.72
						c4.06,0,7.37,3.3,7.37,7.37v5.08c0,4.06-3.3,7.37-7.37,7.37H550.19z"/>
					<path class="st2" d="M575.91,127.44c3.51,0,6.37,2.86,6.37,6.37v5.08c0,3.51-2.86,6.37-6.37,6.37h-25.72
						c-3.51,0-6.37-2.86-6.37-6.37v-5.08c0-3.51,2.86-6.37,6.37-6.37H575.91 M575.91,125.44h-25.72c-4.62,0-8.37,3.75-8.37,8.37
						v5.08c0,4.62,3.75,8.37,8.37,8.37h25.72c4.62,0,8.37-3.75,8.37-8.37v-5.08C584.27,129.19,580.53,125.44,575.91,125.44
						L575.91,125.44z"/>
				</g>
				<path class="st3" d="M578.01,145.18c9.08,3.92,11.28,4.29,11.38,3.74c0.1-0.55-1.99-1.77-4.12-5.09
					c-1.38-2.15-2.19-4.28-2.68-5.82"/>
			</g>
			<g>
				<g>
					<path class="st4" d="M497.7,145.35h25.72c4.62,0,8.37-3.75,8.37-8.37v-5.08c0-4.62-3.75-8.37-8.37-8.37H497.7
						c-4.62,0-8.37,3.75-8.37,8.37v5.08C489.33,141.61,493.08,145.35,497.7,145.35z"/>
				</g>
				<path class="st4" d="M494.76,143.27c-9.08,3.92-11.28,4.29-11.38,3.74c-0.1-0.55,1.99-1.77,4.12-5.09
					c1.38-2.15,2.19-4.28,2.68-5.82"/>
			</g>
			<g>
				<path class="st5" d="M499.3,130.84c22.43,0,22.43,0,22.43,0"/>
				<path class="st5" d="M499.3,133.64c22.43,0,22.43,0,22.43,0"/>
				<path class="st5" d="M499.3,136.45c15.89,0,15.89,0,15.89,0"/>
			</g>
			<g>
				<g>
					<path class="st1" d="M639.72,128.2c0.66,1.4,1.03,2.97,1.03,4.63v0c0,6.03-4.88,10.91-10.91,10.91H609.2
						c-0.31,0-0.62-0.01-0.93-0.04h-2.43c1.85,3.39,5.44,5.69,9.58,5.69h20.64c6.03,0,10.91-4.88,10.91-10.91v0
						C646.96,133.73,643.94,129.7,639.72,128.2z"/>
				</g>
				<path class="st1" d="M641.54,147.31c9.08,3.92,11.28,4.29,11.38,3.74c0.1-0.55-1.99-1.77-4.12-5.09
					c-1.38-2.15-2.19-4.28-2.68-5.82"/>
			</g>
			<g>
				<g>
					<g>
						<path class="st1" d="M704.61,151.72h-25.72c-4.62,0-8.37-3.75-8.37-8.37v-5.08c0-4.62,3.75-8.37,8.37-8.37h25.72
							c4.62,0,8.37,3.75,8.37,8.37v5.08C712.98,147.98,709.23,151.72,704.61,151.72z"/>
					</g>
					<path class="st1" d="M707.55,149.64c9.08,3.92,11.28,4.29,11.38,3.74c0.1-0.55-1.99-1.77-4.12-5.09
						c-1.38-2.15-2.19-4.28-2.68-5.82"/>
				</g>
				<g>
					<g>
						<path class="st6" d="M674.78,149.09h25.72c4.62,0,8.37-3.75,8.37-8.37v-5.08c0-4.62-3.75-8.37-8.37-8.37h-25.72
							c-4.62,0-8.37,3.75-8.37,8.37v5.08C666.41,145.34,670.16,149.09,674.78,149.09z"/>
						<path class="st6" d="M671.84,147.01c-9.08,3.92-11.28,4.29-11.38,3.74c-0.1-0.55,1.99-1.77,4.12-5.09
							c1.38-2.15,2.19-4.28,2.68-5.82"/>
						<path class="st7" d="M676.39,135.04c22.43,0,22.43,0,22.43,0"/>
						<path class="st7" d="M676.39,137.85c22.43,0,22.43,0,22.43,0"/>
						<path class="st7" d="M676.39,140.65c15.89,0,15.89,0,15.89,0"/>
					</g>
					<g>
						<g>
							<g>
								<g>
									<path class="st4" d="M671.78,147.09h25.72c4.62,0,8.37-3.75,8.37-8.37v-5.08c0-4.62-3.75-8.37-8.37-8.37h-25.72
										c-4.62,0-8.37,3.75-8.37,8.37v5.08C663.41,143.34,667.16,147.09,671.78,147.09z"/>
								</g>
								<path class="st4" d="M668.84,145.01c-9.08,3.92-11.28,4.29-11.38,3.74c-0.1-0.55,1.99-1.77,4.12-5.09
									c1.38-2.15,2.19-4.28,2.68-5.82"/>
							</g>
							<g>
								<path class="st8" d="M673.39,133.04c22.43,0,22.43,0,22.43,0"/>
								<path class="st8" d="M673.39,135.85c22.43,0,22.43,0,22.43,0"/>
								<path class="st8" d="M673.39,138.65c15.89,0,15.89,0,15.89,0"/>
							</g>
						</g>
					</g>
				</g>
			</g>
			<g>
				<g>
					<g>
						<g>
							<path class="st6" d="M611.28,148.52H637c4.62,0,8.37-3.75,8.37-8.37v-5.08c0-4.62-3.75-8.37-8.37-8.37h-25.72
								c-4.62,0-8.37,3.75-8.37,8.37v5.08C602.91,144.77,606.66,148.52,611.28,148.52z"/>
							<path class="st6" d="M608.33,146.44c-9.08,3.92-11.28,4.29-11.38,3.74c-0.1-0.55,1.99-1.77,4.12-5.09
								c1.38-2.15,2.19-4.28,2.68-5.82"/>
						</g>
						<g>
							<g>
								<g>
									<g>
										<path class="st4" d="M608.28,146.52H634c4.62,0,8.37-3.75,8.37-8.37v-5.08c0-4.62-3.75-8.37-8.37-8.37h-25.72
											c-4.62,0-8.37,3.75-8.37,8.37v5.08C599.91,142.77,603.66,146.52,608.28,146.52z"/>
									</g>
									<path class="st4" d="M605.33,144.44c-9.08,3.92-11.28,4.29-11.38,3.74c-0.1-0.55,1.99-1.77,4.12-5.09
										c1.38-2.15,2.19-4.28,2.68-5.82"/>
								</g>
							</g>
						</g>
					</g>
				</g>
				<g>
					<g>
						<path class="st9" d="M611.03,135.75c0-1.09,0.75-1.86,1.82-1.86c1.07,0,1.8,0.75,1.81,1.86c0,1.09-0.73,1.85-1.82,1.85
							C611.77,137.6,611.03,136.83,611.03,135.75z"/>
						<path class="st9" d="M619.52,135.75c0-1.09,0.75-1.86,1.82-1.86c1.07,0,1.8,0.75,1.81,1.86c0,1.09-0.73,1.85-1.82,1.85
							C620.27,137.6,619.52,136.83,619.52,135.75z"/>
						<path class="st9" d="M628.02,135.75c0-1.09,0.75-1.86,1.82-1.86c1.07,0,1.8,0.75,1.81,1.86c0,1.09-0.73,1.85-1.82,1.85
							C628.76,137.6,628.02,136.83,628.02,135.75z"/>
					</g>
				</g>
			</g>
		</g>
		<g class="st0">
			<g>
				<g>
					<path class="st1" d="M557.95,343.03c0.66,1.4,1.03,2.97,1.03,4.63v0c0,6.03-4.88,10.91-10.91,10.91h-20.64
						c-1.28,0-2.52-0.22-3.66-0.63c1.74,3.71,5.51,6.28,9.88,6.28h20.64c6.03,0,10.91-4.88,10.91-10.91v0
						C565.2,348.57,562.17,344.54,557.95,343.03z"/>
				</g>
				<path class="st1" d="M559.77,362.14c9.07,3.92,11.28,4.29,11.38,3.74c0.1-0.55-1.99-1.77-4.12-5.09
					c-1.38-2.15-2.19-4.28-2.68-5.82"/>
			</g>
			<g>
				<g>
					<path class="st1" d="M576.66,358.52c-4.06,0-7.37-3.3-7.37-7.37v-5.08c0-4.06,3.3-7.37,7.37-7.37h25.72
						c4.06,0,7.37,3.3,7.37,7.37v5.08c0,4.06-3.3,7.37-7.37,7.37H576.66z"/>
					<path class="st2" d="M602.38,339.71c3.51,0,6.37,2.86,6.37,6.37v5.08c0,3.51-2.86,6.37-6.37,6.37h-25.72
						c-3.51,0-6.37-2.86-6.37-6.37v-5.08c0-3.51,2.86-6.37,6.37-6.37H602.38 M602.38,337.71h-25.72c-4.62,0-8.37,3.75-8.37,8.37
						v5.08c0,4.62,3.75,8.37,8.37,8.37h25.72c4.62,0,8.37-3.75,8.37-8.37v-5.08C610.75,341.45,607,337.71,602.38,337.71
						L602.38,337.71z"/>
				</g>
				<path class="st3" d="M604.48,357.45c9.08,3.92,11.28,4.29,11.38,3.74c0.1-0.55-1.99-1.77-4.12-5.09
					c-1.38-2.15-2.19-4.28-2.68-5.82"/>
			</g>
			<g>
				<g>
					<path class="st4" d="M524.17,357.61h25.72c4.62,0,8.37-3.75,8.37-8.37v-5.08c0-4.62-3.75-8.37-8.37-8.37h-25.72
						c-4.62,0-8.37,3.75-8.37,8.37v5.08C515.81,353.87,519.55,357.61,524.17,357.61z"/>
				</g>
				<path class="st4" d="M521.23,355.53c-9.08,3.92-11.28,4.29-11.38,3.74c-0.1-0.55,1.99-1.77,4.12-5.09
					c1.38-2.15,2.19-4.28,2.68-5.82"/>
			</g>
			<g>
				<path class="st5" d="M525.78,343.1c22.43,0,22.43,0,22.43,0"/>
				<path class="st5" d="M525.78,345.91c22.43,0,22.43,0,22.43,0"/>
				<path class="st5" d="M525.78,348.71c15.89,0,15.89,0,15.89,0"/>
			</g>
			<g>
				<g>
					<path class="st1" d="M666.19,340.46c0.66,1.4,1.03,2.97,1.03,4.63v0c0,6.03-4.88,10.91-10.91,10.91h-20.64
						c-0.31,0-0.62-0.01-0.93-0.04h-2.43c1.85,3.39,5.44,5.69,9.58,5.69h20.64c6.03,0,10.91-4.88,10.91-10.91v0
						C673.44,346,670.42,341.96,666.19,340.46z"/>
				</g>
				<path class="st1" d="M668.01,359.57c9.08,3.92,11.28,4.29,11.38,3.74c0.1-0.55-1.99-1.77-4.12-5.09
					c-1.38-2.15-2.19-4.28-2.68-5.82"/>
			</g>
			<g>
				<g>
					<g>
						<path class="st1" d="M731.09,363.98h-25.72c-4.62,0-8.37-3.75-8.37-8.37v-5.08c0-4.62,3.75-8.37,8.37-8.37h25.72
							c4.62,0,8.37,3.75,8.37,8.37v5.08C739.45,360.24,735.71,363.98,731.09,363.98z"/>
					</g>
					<path class="st1" d="M734.03,361.9c9.08,3.92,11.28,4.29,11.38,3.74c0.1-0.55-1.99-1.77-4.12-5.09
						c-1.38-2.15-2.19-4.28-2.68-5.82"/>
				</g>
				<g>
					<g>
						<path class="st6" d="M701.26,361.35h25.72c4.62,0,8.37-3.75,8.37-8.37v-5.08c0-4.62-3.75-8.37-8.37-8.37h-25.72
							c-4.62,0-8.37,3.75-8.37,8.37v5.08C692.89,357.6,696.64,361.35,701.26,361.35z"/>
						<path class="st6" d="M698.31,359.27c-9.08,3.92-11.28,4.29-11.38,3.74c-0.1-0.55,1.99-1.77,4.12-5.09
							c1.38-2.15,2.19-4.28,2.68-5.82"/>
						<path class="st7" d="M702.86,347.3c22.43,0,22.43,0,22.43,0"/>
						<path class="st7" d="M702.86,350.11c22.43,0,22.43,0,22.43,0"/>
						<path class="st7" d="M702.86,352.91c15.89,0,15.89,0,15.89,0"/>
					</g>
					<g>
						<g>
							<g>
								<g>
									<path class="st4" d="M698.26,359.35h25.72c4.62,0,8.37-3.75,8.37-8.37v-5.08c0-4.62-3.75-8.37-8.37-8.37h-25.72
										c-4.62,0-8.37,3.75-8.37,8.37v5.08C689.89,355.6,693.64,359.35,698.26,359.35z"/>
								</g>
								<path class="st4" d="M695.31,357.27c-9.08,3.92-11.28,4.29-11.38,3.74c-0.1-0.55,1.99-1.77,4.12-5.09
									c1.38-2.15,2.19-4.28,2.68-5.82"/>
							</g>
							<g>
								<path class="st8" d="M699.86,345.3c22.43,0,22.43,0,22.43,0"/>
								<path class="st8" d="M699.86,348.11c22.43,0,22.43,0,22.43,0"/>
								<path class="st8" d="M699.86,350.91c15.89,0,15.89,0,15.89,0"/>
							</g>
						</g>
					</g>
				</g>
			</g>
			<g>
				<g>
					<g>
						<g>
							<path class="st6" d="M637.75,360.78h25.72c4.62,0,8.37-3.75,8.37-8.37v-5.08c0-4.62-3.75-8.37-8.37-8.37h-25.72
								c-4.62,0-8.37,3.75-8.37,8.37v5.08C629.39,357.03,633.13,360.78,637.75,360.78z"/>
							<path class="st6" d="M634.81,358.7c-9.08,3.92-11.28,4.29-11.38,3.74c-0.1-0.55,1.99-1.77,4.12-5.09
								c1.38-2.15,2.19-4.28,2.68-5.82"/>
						</g>
						<g>
							<g>
								<g>
									<g>
										<path class="st4" d="M634.75,358.78h25.72c4.62,0,8.37-3.75,8.37-8.37v-5.08c0-4.62-3.75-8.37-8.37-8.37h-25.72
											c-4.62,0-8.37,3.75-8.37,8.37v5.08C626.39,355.03,630.13,358.78,634.75,358.78z"/>
									</g>
									<path class="st4" d="M631.81,356.7c-9.08,3.92-11.28,4.29-11.38,3.74c-0.1-0.55,1.99-1.77,4.12-5.09
										c1.38-2.15,2.19-4.28,2.68-5.82"/>
								</g>
							</g>
						</g>
					</g>
				</g>
				<g>
					<g>
						<path class="st9" d="M637.5,348.01c0-1.09,0.75-1.86,1.82-1.86c1.07,0,1.8,0.75,1.81,1.86c0,1.09-0.73,1.85-1.82,1.85
							C638.25,349.86,637.5,349.1,637.5,348.01z"/>
						<path class="st9" d="M646,348.01c0-1.09,0.75-1.86,1.82-1.86c1.07,0,1.8,0.75,1.81,1.86c0,1.09-0.73,1.85-1.82,1.85
							C646.74,349.86,646,349.1,646,348.01z"/>
						<path class="st9" d="M654.49,348.01c0-1.09,0.75-1.86,1.82-1.86c1.07,0,1.8,0.75,1.81,1.86c0,1.09-0.73,1.85-1.82,1.85
							C655.24,349.86,654.49,349.1,654.49,348.01z"/>
					</g>
				</g>
			</g>
		</g>
		<g class="st0">
			<g>
				<g>
					<path class="st1" d="M688.91,384.31c0.66,1.4,1.03,2.97,1.03,4.63v0c0,6.03-4.88,10.91-10.91,10.91h-20.64
						c-1.28,0-2.52-0.22-3.66-0.63c1.74,3.71,5.51,6.28,9.88,6.28h20.64c6.03,0,10.91-4.88,10.91-10.91v0
						C696.16,389.84,693.13,385.81,688.91,384.31z"/>
				</g>
				<path class="st1" d="M690.73,403.41c9.08,3.92,11.28,4.29,11.38,3.74c0.1-0.55-1.99-1.77-4.12-5.09
					c-1.38-2.15-2.19-4.28-2.68-5.82"/>
			</g>
			<g>
				<g>
					<path class="st1" d="M707.62,399.8c-4.06,0-7.37-3.3-7.37-7.37v-5.08c0-4.06,3.3-7.37,7.37-7.37h25.72
						c4.06,0,7.37,3.3,7.37,7.37v5.08c0,4.06-3.3,7.37-7.37,7.37H707.62z"/>
					<path class="st2" d="M733.34,380.98c3.51,0,6.37,2.86,6.37,6.37v5.08c0,3.51-2.86,6.37-6.37,6.37h-25.72
						c-3.51,0-6.37-2.86-6.37-6.37v-5.08c0-3.51,2.86-6.37,6.37-6.37H733.34 M733.34,378.98h-25.72c-4.62,0-8.37,3.75-8.37,8.37
						v5.08c0,4.62,3.75,8.37,8.37,8.37h25.72c4.62,0,8.37-3.75,8.37-8.37v-5.08C741.71,382.73,737.96,378.98,733.34,378.98
						L733.34,378.98z"/>
				</g>
				<path class="st3" d="M735.44,398.72c9.08,3.92,11.28,4.29,11.38,3.74c0.1-0.55-1.99-1.77-4.12-5.09
					c-1.38-2.15-2.19-4.28-2.68-5.82"/>
			</g>
			<g>
				<g>
					<path class="st4" d="M655.13,398.89h25.72c4.62,0,8.37-3.75,8.37-8.37v-5.08c0-4.62-3.75-8.37-8.37-8.37h-25.72
						c-4.62,0-8.37,3.75-8.37,8.37v5.08C646.77,395.14,650.51,398.89,655.13,398.89z"/>
				</g>
				<path class="st4" d="M652.19,396.81c-9.08,3.92-11.28,4.29-11.38,3.74c-0.1-0.55,1.99-1.77,4.12-5.09
					c1.38-2.15,2.19-4.28,2.68-5.82"/>
			</g>
			<g>
				<path class="st5" d="M656.74,384.38c22.43,0,22.43,0,22.43,0"/>
				<path class="st5" d="M656.74,387.18c22.43,0,22.43,0,22.43,0"/>
				<path class="st5" d="M656.74,389.98c15.89,0,15.89,0,15.89,0"/>
			</g>
			<g>
				<g>
					<path class="st1" d="M797.15,381.73c0.66,1.4,1.03,2.97,1.03,4.63v0c0,6.03-4.88,10.91-10.91,10.91h-20.64
						c-0.31,0-0.62-0.01-0.93-0.04h-2.43c1.85,3.39,5.44,5.69,9.58,5.69h20.64c6.03,0,10.91-4.88,10.91-10.91v0
						C804.4,387.27,801.37,383.24,797.15,381.73z"/>
				</g>
				<path class="st1" d="M798.97,400.84c9.08,3.92,11.28,4.29,11.38,3.74c0.1-0.55-1.99-1.77-4.12-5.09
					c-1.38-2.15-2.19-4.28-2.68-5.82"/>
			</g>
			<g>
				<g>
					<g>
						<path class="st1" d="M862.04,405.26h-25.72c-4.62,0-8.37-3.75-8.37-8.37v-5.08c0-4.62,3.75-8.37,8.37-8.37h25.72
							c4.62,0,8.37,3.75,8.37,8.37v5.08C870.41,401.51,866.67,405.26,862.04,405.26z"/>
					</g>
					<path class="st1" d="M864.99,403.18c9.08,3.92,11.28,4.29,11.38,3.74c0.1-0.55-1.99-1.77-4.12-5.09
						c-1.38-2.15-2.19-4.28-2.68-5.82"/>
				</g>
				<g>
					<g>
						<path class="st6" d="M832.22,402.62h25.72c4.62,0,8.37-3.75,8.37-8.37v-5.08c0-4.62-3.75-8.37-8.37-8.37h-25.72
							c-4.62,0-8.37,3.75-8.37,8.37v5.08C823.85,398.87,827.59,402.62,832.22,402.62z"/>
						<path class="st6" d="M829.27,400.54c-9.08,3.92-11.28,4.29-11.38,3.74c-0.1-0.55,1.99-1.77,4.12-5.09
							c1.38-2.15,2.19-4.28,2.68-5.82"/>
						<path class="st7" d="M833.82,388.58c22.43,0,22.43,0,22.43,0"/>
						<path class="st7" d="M833.82,391.38c22.43,0,22.43,0,22.43,0"/>
						<path class="st7" d="M833.82,394.19c15.89,0,15.89,0,15.89,0"/>
					</g>
					<g>
						<g>
							<g>
								<g>
									<path class="st4" d="M829.22,400.62h25.72c4.62,0,8.37-3.75,8.37-8.37v-5.08c0-4.62-3.75-8.37-8.37-8.37h-25.72
										c-4.62,0-8.37,3.75-8.37,8.37v5.08C820.85,396.87,824.59,400.62,829.22,400.62z"/>
								</g>
								<path class="st4" d="M826.27,398.54c-9.08,3.92-11.28,4.29-11.38,3.74c-0.1-0.55,1.99-1.77,4.12-5.09
									c1.38-2.15,2.19-4.28,2.68-5.82"/>
							</g>
							<g>
								<path class="st8" d="M830.82,386.58c22.43,0,22.43,0,22.43,0"/>
								<path class="st8" d="M830.82,389.38c22.43,0,22.43,0,22.43,0"/>
								<path class="st8" d="M830.82,392.19c15.89,0,15.89,0,15.89,0"/>
							</g>
						</g>
					</g>
				</g>
			</g>
			<g>
				<g>
					<g>
						<g>
							<path class="st6" d="M768.71,402.05h25.72c4.62,0,8.37-3.75,8.37-8.37v-5.08c0-4.62-3.75-8.37-8.37-8.37h-25.72
								c-4.62,0-8.37,3.75-8.37,8.37v5.08C760.34,398.3,764.09,402.05,768.71,402.05z"/>
							<path class="st6" d="M765.77,399.97c-9.08,3.92-11.28,4.29-11.38,3.74c-0.1-0.55,1.99-1.77,4.12-5.09
								c1.38-2.15,2.19-4.28,2.68-5.82"/>
						</g>
						<g>
							<g>
								<g>
									<g>
										<path class="st4" d="M765.71,400.05h25.72c4.62,0,8.37-3.75,8.37-8.37v-5.08c0-4.62-3.75-8.37-8.37-8.37h-25.72
											c-4.62,0-8.37,3.75-8.37,8.37v5.08C757.34,396.3,761.09,400.05,765.71,400.05z"/>
									</g>
									<path class="st4" d="M762.77,397.97c-9.08,3.92-11.28,4.29-11.38,3.74c-0.1-0.55,1.99-1.77,4.12-5.09
										c1.38-2.15,2.19-4.28,2.68-5.82"/>
								</g>
							</g>
						</g>
					</g>
				</g>
				<g>
					<g>
						<path class="st9" d="M768.46,389.28c0-1.09,0.75-1.86,1.82-1.86c1.07,0,1.8,0.75,1.81,1.86c0,1.09-0.73,1.85-1.82,1.85
							C769.21,391.14,768.46,390.37,768.46,389.28z"/>
						<path class="st9" d="M776.96,389.28c0-1.09,0.75-1.86,1.82-1.86c1.07,0,1.8,0.75,1.81,1.86c0,1.09-0.73,1.85-1.82,1.85
							C777.7,391.14,776.96,390.37,776.96,389.28z"/>
						<path class="st9" d="M785.45,389.28c0-1.09,0.75-1.86,1.82-1.86c1.07,0,1.8,0.75,1.81,1.86c0,1.09-0.73,1.85-1.82,1.85
							C786.2,391.14,785.45,390.37,785.45,389.28z"/>
					</g>
				</g>
			</g>
		</g>
		<g class="st0">
			<g>
				<g>
					<path class="st1" d="M807.53,424.74c0.66,1.4,1.03,2.97,1.03,4.63v0c0,6.03-4.88,10.91-10.91,10.91h-20.64
						c-1.28,0-2.52-0.22-3.66-0.63c1.74,3.71,5.51,6.28,9.88,6.28h20.64c6.03,0,10.91-4.88,10.91-10.91v0
						C814.78,430.28,811.76,426.24,807.53,424.74z"/>
				</g>
				<path class="st1" d="M809.36,443.85c9.07,3.92,11.28,4.29,11.38,3.74c0.1-0.55-1.99-1.77-4.12-5.09
					c-1.38-2.15-2.19-4.28-2.68-5.82"/>
			</g>
			<g>
				<g>
					<path class="st1" d="M826.25,440.23c-4.06,0-7.37-3.3-7.37-7.37v-5.08c0-4.06,3.3-7.37,7.37-7.37h25.72
						c4.06,0,7.37,3.3,7.37,7.37v5.08c0,4.06-3.3,7.37-7.37,7.37H826.25z"/>
					<path class="st2" d="M851.97,421.41c3.51,0,6.37,2.86,6.37,6.37v5.08c0,3.51-2.86,6.37-6.37,6.37h-25.72
						c-3.51,0-6.37-2.86-6.37-6.37v-5.08c0-3.51,2.86-6.37,6.37-6.37H851.97 M851.97,419.41h-25.72c-4.62,0-8.37,3.75-8.37,8.37
						v5.08c0,4.62,3.75,8.37,8.37,8.37h25.72c4.62,0,8.37-3.75,8.37-8.37v-5.08C860.33,423.16,856.59,419.41,851.97,419.41
						L851.97,419.41z"/>
				</g>
				<path class="st3" d="M854.07,439.15c9.08,3.92,11.28,4.29,11.38,3.74c0.1-0.55-1.99-1.77-4.12-5.09
					c-1.38-2.15-2.19-4.28-2.68-5.82"/>
			</g>
			<g>
				<g>
					<path class="st4" d="M773.76,439.32h25.72c4.62,0,8.37-3.75,8.37-8.37v-5.08c0-4.62-3.75-8.37-8.37-8.37h-25.72
						c-4.62,0-8.37,3.75-8.37,8.37v5.08C765.39,435.57,769.14,439.32,773.76,439.32z"/>
				</g>
				<path class="st4" d="M770.82,437.24c-9.08,3.92-11.28,4.29-11.38,3.74c-0.1-0.55,1.99-1.77,4.12-5.09
					c1.38-2.15,2.19-4.28,2.68-5.82"/>
			</g>
			<g>
				<path class="st5" d="M775.36,424.81c22.43,0,22.43,0,22.43,0"/>
				<path class="st5" d="M775.36,427.61c22.43,0,22.43,0,22.43,0"/>
				<path class="st5" d="M775.36,430.42c15.89,0,15.89,0,15.89,0"/>
			</g>
			<g>
				<g>
					<path class="st1" d="M915.78,422.16c0.66,1.4,1.03,2.97,1.03,4.63v0c0,6.03-4.88,10.91-10.91,10.91h-20.64
						c-0.31,0-0.62-0.01-0.93-0.04h-2.43c1.85,3.39,5.44,5.69,9.58,5.69h20.64c6.03,0,10.91-4.88,10.91-10.91v0
						C923.02,427.7,920,423.67,915.78,422.16z"/>
				</g>
				<path class="st1" d="M917.6,441.27c9.07,3.92,11.28,4.29,11.38,3.74c0.1-0.55-1.99-1.77-4.12-5.09
					c-1.38-2.15-2.19-4.28-2.68-5.82"/>
			</g>
			<g>
				<g>
					<g>
						<path class="st1" d="M980.67,445.69h-25.72c-4.62,0-8.37-3.75-8.37-8.37v-5.08c0-4.62,3.75-8.37,8.37-8.37h25.72
							c4.62,0,8.37,3.75,8.37,8.37v5.08C989.04,441.94,985.29,445.69,980.67,445.69z"/>
					</g>
					<path class="st1" d="M983.61,443.61c9.07,3.92,11.28,4.29,11.38,3.74c0.1-0.55-1.99-1.77-4.12-5.09
						c-1.38-2.15-2.19-4.28-2.68-5.82"/>
				</g>
				<g>
					<g>
						<path class="st6" d="M950.84,443.05h25.72c4.62,0,8.37-3.75,8.37-8.37v-5.08c0-4.62-3.75-8.37-8.37-8.37h-25.72
							c-4.62,0-8.37,3.75-8.37,8.37v5.08C942.47,439.31,946.22,443.05,950.84,443.05z"/>
						<path class="st6" d="M947.9,440.97c-9.08,3.92-11.28,4.29-11.38,3.74c-0.1-0.55,1.99-1.77,4.12-5.09
							c1.38-2.15,2.19-4.28,2.68-5.82"/>
						<path class="st7" d="M952.45,429.01c22.43,0,22.43,0,22.43,0"/>
						<path class="st7" d="M952.45,431.81c22.43,0,22.43,0,22.43,0"/>
						<path class="st7" d="M952.45,434.62c15.89,0,15.89,0,15.89,0"/>
					</g>
					<g>
						<g>
							<g>
								<g>
									<path class="st4" d="M947.84,441.05h25.72c4.62,0,8.37-3.75,8.37-8.37v-5.08c0-4.62-3.75-8.37-8.37-8.37h-25.72
										c-4.62,0-8.37,3.75-8.37,8.37v5.08C939.47,437.31,943.22,441.05,947.84,441.05z"/>
								</g>
								<path class="st4" d="M944.9,438.97c-9.08,3.92-11.28,4.29-11.38,3.74c-0.1-0.55,1.99-1.77,4.12-5.09
									c1.38-2.15,2.19-4.28,2.68-5.82"/>
							</g>
							<g>
								<path class="st8" d="M949.45,427.01c22.43,0,22.43,0,22.43,0"/>
								<path class="st8" d="M949.45,429.81c22.43,0,22.43,0,22.43,0"/>
								<path class="st8" d="M949.45,432.62c15.89,0,15.89,0,15.89,0"/>
							</g>
						</g>
					</g>
				</g>
			</g>
			<g>
				<g>
					<g>
						<g>
							<path class="st6" d="M887.34,442.48h25.72c4.62,0,8.37-3.75,8.37-8.37v-5.08c0-4.62-3.75-8.37-8.37-8.37h-25.72
								c-4.62,0-8.37,3.75-8.37,8.37v5.08C878.97,438.74,882.72,442.48,887.34,442.48z"/>
							<path class="st6" d="M884.39,440.41c-9.07,3.92-11.28,4.29-11.38,3.74c-0.1-0.55,1.99-1.77,4.12-5.09
								c1.38-2.15,2.19-4.28,2.68-5.82"/>
						</g>
						<g>
							<g>
								<g>
									<g>
										<path class="st4" d="M884.34,440.48h25.72c4.62,0,8.37-3.75,8.37-8.37v-5.08c0-4.62-3.75-8.37-8.37-8.37h-25.72
											c-4.62,0-8.37,3.75-8.37,8.37v5.08C875.97,436.74,879.72,440.48,884.34,440.48z"/>
									</g>
									<path class="st4" d="M881.39,438.41c-9.07,3.92-11.28,4.29-11.38,3.74c-0.1-0.55,1.99-1.77,4.12-5.09
										c1.38-2.15,2.19-4.28,2.68-5.82"/>
								</g>
							</g>
						</g>
					</g>
				</g>
				<g>
					<g>
						<path class="st9" d="M887.09,429.72c0-1.09,0.75-1.86,1.82-1.86c1.07,0,1.8,0.75,1.81,1.86c0,1.09-0.73,1.85-1.82,1.85
							C887.83,431.57,887.09,430.8,887.09,429.72z"/>
						<path class="st9" d="M895.58,429.72c0-1.09,0.75-1.86,1.82-1.86c1.07,0,1.8,0.75,1.81,1.86c0,1.09-0.73,1.85-1.82,1.85
							C896.33,431.57,895.58,430.8,895.58,429.72z"/>
						<path class="st9" d="M904.07,429.72c0-1.09,0.75-1.86,1.82-1.86c1.07,0,1.8,0.75,1.81,1.86c0,1.09-0.73,1.85-1.82,1.85
							C904.82,431.57,904.07,430.8,904.07,429.72z"/>
					</g>
				</g>
			</g>
		</g>
		<g class="st0">
			<g>
				<g>
					<g>
						<path class="st1" d="M543.25,258.8c0.66,1.4,1.03,2.97,1.03,4.63v0c0,6.03-4.88,10.91-10.91,10.91h-20.64
							c-1.28,0-2.52-0.22-3.66-0.63c1.74,3.71,5.51,6.28,9.88,6.28h20.64c6.03,0,10.91-4.88,10.91-10.91v0
							C550.5,264.34,547.48,260.31,543.25,258.8z"/>
					</g>
					<path class="st1" d="M545.07,277.91c9.08,3.92,11.28,4.29,11.38,3.74c0.1-0.55-1.99-1.77-4.12-5.09
						c-1.38-2.15-2.19-4.28-2.68-5.82"/>
				</g>
				<g>
					<g>
						<path class="st1" d="M561.96,274.29c-4.06,0-7.37-3.3-7.37-7.37v-5.08c0-4.06,3.3-7.37,7.37-7.37h25.72
							c4.06,0,7.37,3.3,7.37,7.37v5.08c0,4.06-3.3,7.37-7.37,7.37H561.96z"/>
						<path class="st2" d="M587.68,255.47c3.51,0,6.37,2.86,6.37,6.37v5.08c0,3.51-2.86,6.37-6.37,6.37h-25.72
							c-3.51,0-6.37-2.86-6.37-6.37v-5.08c0-3.51,2.86-6.37,6.37-6.37H587.68 M587.68,253.47h-25.72c-4.62,0-8.37,3.75-8.37,8.37
							v5.08c0,4.62,3.75,8.37,8.37,8.37h25.72c4.62,0,8.37-3.75,8.37-8.37v-5.08C596.05,257.22,592.31,253.47,587.68,253.47
							L587.68,253.47z"/>
					</g>
					<path class="st3" d="M589.79,273.21c9.08,3.92,11.28,4.29,11.38,3.74c0.1-0.55-1.99-1.77-4.12-5.09
						c-1.38-2.15-2.19-4.28-2.68-5.82"/>
				</g>
				<g>
					<g>
						<path class="st4" d="M509.48,273.38h25.72c4.62,0,8.37-3.75,8.37-8.37v-5.08c0-4.62-3.75-8.37-8.37-8.37h-25.72
							c-4.62,0-8.37,3.75-8.37,8.37v5.08C501.11,269.63,504.86,273.38,509.48,273.38z"/>
					</g>
					<path class="st4" d="M506.53,271.3c-9.08,3.92-11.28,4.29-11.38,3.74c-0.1-0.55,1.99-1.77,4.12-5.09
						c1.38-2.15,2.19-4.28,2.68-5.82"/>
				</g>
				<g>
					<path class="st5" d="M511.08,258.87c22.43,0,22.43,0,22.43,0"/>
					<path class="st5" d="M511.08,261.67c22.43,0,22.43,0,22.43,0"/>
					<path class="st5" d="M511.08,264.48c15.89,0,15.89,0,15.89,0"/>
				</g>
				<g>
					<g>
						<path class="st1" d="M651.49,256.23c0.66,1.4,1.03,2.97,1.03,4.63v0c0,6.03-4.88,10.91-10.91,10.91h-20.64
							c-0.31,0-0.62-0.01-0.93-0.04h-2.43c1.85,3.39,5.44,5.69,9.58,5.69h20.64c6.03,0,10.91-4.88,10.91-10.91v0
							C658.74,261.76,655.72,257.73,651.49,256.23z"/>
					</g>
					<path class="st1" d="M653.32,275.34c9.08,3.92,11.28,4.29,11.38,3.74c0.1-0.55-1.99-1.77-4.12-5.09
						c-1.38-2.15-2.19-4.28-2.68-5.82"/>
				</g>
				<g>
					<g>
						<g>
							<path class="st1" d="M716.39,279.75h-25.72c-4.62,0-8.37-3.75-8.37-8.37v-5.08c0-4.62,3.75-8.37,8.37-8.37h25.72
								c4.62,0,8.37,3.75,8.37,8.37v5.08C724.75,276,721.01,279.75,716.39,279.75z"/>
						</g>
						<path class="st1" d="M719.33,277.67c9.08,3.92,11.28,4.29,11.38,3.74c0.1-0.55-1.99-1.77-4.12-5.09
							c-1.38-2.15-2.19-4.28-2.68-5.82"/>
					</g>
					<g>
						<g>
							<path class="st6" d="M686.56,277.11h25.72c4.62,0,8.37-3.75,8.37-8.37v-5.08c0-4.62-3.75-8.37-8.37-8.37h-25.72
								c-4.62,0-8.37,3.75-8.37,8.37v5.08C678.19,273.37,681.94,277.11,686.56,277.11z"/>
							<path class="st6" d="M683.62,275.04c-9.08,3.92-11.28,4.29-11.38,3.74c-0.1-0.55,1.99-1.77,4.12-5.09
								c1.38-2.15,2.19-4.28,2.68-5.82"/>
							<path class="st7" d="M688.16,263.07c22.43,0,22.43,0,22.43,0"/>
							<path class="st7" d="M688.16,265.88c22.43,0,22.43,0,22.43,0"/>
							<path class="st7" d="M688.16,268.68c15.89,0,15.89,0,15.89,0"/>
						</g>
						<g>
							<g>
								<g>
									<g>
										<path class="st4" d="M683.56,275.11h25.72c4.62,0,8.37-3.75,8.37-8.37v-5.08c0-4.62-3.75-8.37-8.37-8.37h-25.72
											c-4.62,0-8.37,3.75-8.37,8.37v5.08C675.19,271.37,678.94,275.11,683.56,275.11z"/>
									</g>
									<path class="st4" d="M680.62,273.04c-9.08,3.92-11.28,4.29-11.38,3.74c-0.1-0.55,1.99-1.77,4.12-5.09
										c1.38-2.15,2.19-4.28,2.68-5.82"/>
								</g>
								<g>
									<path class="st8" d="M685.16,261.07c22.43,0,22.43,0,22.43,0"/>
									<path class="st8" d="M685.16,263.88c22.43,0,22.43,0,22.43,0"/>
									<path class="st8" d="M685.16,266.68c15.89,0,15.89,0,15.89,0"/>
								</g>
							</g>
						</g>
					</g>
				</g>
				<g>
					<g>
						<g>
							<g>
								<path class="st6" d="M623.05,276.55h25.72c4.62,0,8.37-3.75,8.37-8.37v-5.08c0-4.62-3.75-8.37-8.37-8.37h-25.72
									c-4.62,0-8.37,3.75-8.37,8.37v5.08C614.69,272.8,618.43,276.55,623.05,276.55z"/>
								<path class="st6" d="M620.11,274.47c-9.08,3.92-11.28,4.29-11.38,3.74c-0.1-0.55,1.99-1.77,4.12-5.09
									c1.38-2.15,2.19-4.28,2.68-5.82"/>
							</g>
							<g>
								<g>
									<g>
										<g>
											<path class="st4" d="M620.05,274.55h25.72c4.62,0,8.37-3.75,8.37-8.37v-5.08c0-4.62-3.75-8.37-8.37-8.37h-25.72
												c-4.62,0-8.37,3.75-8.37,8.37v5.08C611.69,270.8,615.43,274.55,620.05,274.55z"/>
										</g>
										<path class="st4" d="M617.11,272.47c-9.08,3.92-11.28,4.29-11.38,3.74c-0.1-0.55,1.99-1.77,4.12-5.09
											c1.38-2.15,2.19-4.28,2.68-5.82"/>
									</g>
								</g>
							</g>
						</g>
					</g>
					<g>
						<g>
							<path class="st9" d="M622.81,263.78c0-1.09,0.75-1.86,1.82-1.86c1.07,0,1.8,0.75,1.81,1.86c0,1.09-0.73,1.85-1.82,1.85
								C623.55,265.63,622.81,264.86,622.81,263.78z"/>
							<path class="st9" d="M631.3,263.78c0-1.09,0.75-1.86,1.82-1.86c1.07,0,1.8,0.75,1.81,1.86c0,1.09-0.73,1.85-1.82,1.85
								C632.05,265.63,631.3,264.86,631.3,263.78z"/>
							<path class="st9" d="M639.79,263.78c0-1.09,0.75-1.86,1.82-1.86c1.07,0,1.8,0.75,1.81,1.86c0,1.09-0.73,1.85-1.82,1.85
								C640.54,265.63,639.79,264.86,639.79,263.78z"/>
						</g>
					</g>
				</g>
			</g>
			<g>
				<g>
					<g>
						<path class="st1" d="M296.02,258.8c0.66,1.4,1.03,2.97,1.03,4.63v0c0,6.03-4.88,10.91-10.91,10.91H265.5
							c-1.28,0-2.52-0.22-3.66-0.63c1.74,3.71,5.51,6.28,9.88,6.28h20.64c6.03,0,10.91-4.88,10.91-10.91v0
							C303.26,264.34,300.24,260.31,296.02,258.8z"/>
					</g>
					<path class="st1" d="M297.84,277.91c9.07,3.92,11.28,4.29,11.38,3.74c0.1-0.55-1.99-1.77-4.12-5.09
						c-1.38-2.15-2.19-4.28-2.68-5.82"/>
				</g>
				<g>
					<g>
						<path class="st1" d="M314.73,274.29c-4.06,0-7.37-3.3-7.37-7.37v-5.08c0-4.06,3.3-7.37,7.37-7.37h25.72
							c4.06,0,7.37,3.3,7.37,7.37v5.08c0,4.06-3.3,7.37-7.37,7.37H314.73z"/>
						<path class="st2" d="M340.45,255.47c3.51,0,6.37,2.86,6.37,6.37v5.08c0,3.51-2.86,6.37-6.37,6.37h-25.72
							c-3.51,0-6.37-2.86-6.37-6.37v-5.08c0-3.51,2.86-6.37,6.37-6.37H340.45 M340.45,253.47h-25.72c-4.62,0-8.37,3.75-8.37,8.37
							v5.08c0,4.62,3.75,8.37,8.37,8.37h25.72c4.62,0,8.37-3.75,8.37-8.37v-5.08C348.82,257.22,345.07,253.47,340.45,253.47
							L340.45,253.47z"/>
					</g>
					<path class="st3" d="M342.55,273.21c9.08,3.92,11.28,4.29,11.38,3.74c0.1-0.55-1.99-1.77-4.12-5.09
						c-1.38-2.15-2.19-4.28-2.68-5.82"/>
				</g>
				<g>
					<g>
						<path class="st4" d="M262.24,273.38h25.72c4.62,0,8.37-3.75,8.37-8.37v-5.08c0-4.62-3.75-8.37-8.37-8.37h-25.72
							c-4.62,0-8.37,3.75-8.37,8.37v5.08C253.87,269.63,257.62,273.38,262.24,273.38z"/>
					</g>
					<path class="st4" d="M259.3,271.3c-9.07,3.92-11.28,4.29-11.38,3.74c-0.1-0.55,1.99-1.77,4.12-5.09
						c1.38-2.15,2.19-4.28,2.68-5.82"/>
				</g>
				<g>
					<path class="st5" d="M263.85,258.87c22.43,0,22.43,0,22.43,0"/>
					<path class="st5" d="M263.85,261.67c22.43,0,22.43,0,22.43,0"/>
					<path class="st5" d="M263.85,264.48c15.89,0,15.89,0,15.89,0"/>
				</g>
				<g>
					<g>
						<path class="st1" d="M404.26,256.23c0.66,1.4,1.03,2.97,1.03,4.63v0c0,6.03-4.88,10.91-10.91,10.91h-20.64
							c-0.31,0-0.62-0.01-0.93-0.04h-2.43c1.85,3.39,5.44,5.69,9.58,5.69h20.64c6.03,0,10.91-4.88,10.91-10.91v0
							C411.51,261.76,408.48,257.73,404.26,256.23z"/>
					</g>
					<path class="st1" d="M406.08,275.34c9.07,3.92,11.28,4.29,11.38,3.74c0.1-0.55-1.99-1.77-4.12-5.09
						c-1.38-2.15-2.19-4.28-2.68-5.82"/>
				</g>
				<g>
					<g>
						<g>
							<path class="st1" d="M469.15,279.75h-25.72c-4.62,0-8.37-3.75-8.37-8.37v-5.08c0-4.62,3.75-8.37,8.37-8.37h25.72
								c4.62,0,8.37,3.75,8.37,8.37v5.08C477.52,276,473.77,279.75,469.15,279.75z"/>
						</g>
						<path class="st1" d="M472.09,277.67c9.07,3.92,11.28,4.29,11.38,3.74c0.1-0.55-1.99-1.77-4.12-5.09
							c-1.38-2.15-2.19-4.28-2.68-5.82"/>
					</g>
					<g>
						<g>
							<path class="st6" d="M439.32,277.11h25.72c4.62,0,8.37-3.75,8.37-8.37v-5.08c0-4.62-3.75-8.37-8.37-8.37h-25.72
								c-4.62,0-8.37,3.75-8.37,8.37v5.08C430.96,273.37,434.7,277.11,439.32,277.11z"/>
							<path class="st6" d="M436.38,275.04c-9.07,3.92-11.28,4.29-11.38,3.74c-0.1-0.55,1.99-1.77,4.12-5.09
								c1.38-2.15,2.19-4.28,2.68-5.82"/>
							<path class="st7" d="M440.93,263.07c22.43,0,22.43,0,22.43,0"/>
							<path class="st7" d="M440.93,265.88c22.43,0,22.43,0,22.43,0"/>
							<path class="st7" d="M440.93,268.68c15.89,0,15.89,0,15.89,0"/>
						</g>
						<g>
							<g>
								<g>
									<g>
										<path class="st4" d="M436.32,275.11h25.72c4.62,0,8.37-3.75,8.37-8.37v-5.08c0-4.62-3.75-8.37-8.37-8.37h-25.72
											c-4.62,0-8.37,3.75-8.37,8.37v5.08C427.96,271.37,431.7,275.11,436.32,275.11z"/>
									</g>
									<path class="st4" d="M433.38,273.04c-9.07,3.92-11.28,4.29-11.38,3.74c-0.1-0.55,1.99-1.77,4.12-5.09
										c1.38-2.15,2.19-4.28,2.68-5.82"/>
								</g>
								<g>
									<path class="st8" d="M437.93,261.07c22.43,0,22.43,0,22.43,0"/>
									<path class="st8" d="M437.93,263.88c22.43,0,22.43,0,22.43,0"/>
									<path class="st8" d="M437.93,266.68c15.89,0,15.89,0,15.89,0"/>
								</g>
							</g>
						</g>
					</g>
				</g>
				<g>
					<g>
						<g>
							<g>
								<path class="st6" d="M375.82,276.55h25.72c4.62,0,8.37-3.75,8.37-8.37v-5.08c0-4.62-3.75-8.37-8.37-8.37h-25.72
									c-4.62,0-8.37,3.75-8.37,8.37v5.08C367.45,272.8,371.2,276.55,375.82,276.55z"/>
								<path class="st6" d="M372.88,274.47c-9.07,3.92-11.28,4.29-11.38,3.74c-0.1-0.55,1.99-1.77,4.12-5.09
									c1.38-2.15,2.19-4.28,2.68-5.82"/>
							</g>
							<g>
								<g>
									<g>
										<g>
											<path class="st4" d="M372.82,274.55h25.72c4.62,0,8.37-3.75,8.37-8.37v-5.08c0-4.62-3.75-8.37-8.37-8.37h-25.72
												c-4.62,0-8.37,3.75-8.37,8.37v5.08C364.45,270.8,368.2,274.55,372.82,274.55z"/>
										</g>
										<path class="st4" d="M369.88,272.47c-9.07,3.92-11.28,4.29-11.38,3.74c-0.1-0.55,1.99-1.77,4.12-5.09
											c1.38-2.15,2.19-4.28,2.68-5.82"/>
									</g>
								</g>
							</g>
						</g>
					</g>
					<g>
						<g>
							<path class="st9" d="M375.57,263.78c0-1.09,0.75-1.86,1.82-1.86c1.07,0,1.8,0.75,1.81,1.86c0,1.09-0.73,1.85-1.82,1.85
								C376.32,265.63,375.57,264.86,375.57,263.78z"/>
							<path class="st9" d="M384.06,263.78c0-1.09,0.75-1.86,1.82-1.86c1.07,0,1.8,0.75,1.81,1.86c0,1.09-0.73,1.85-1.82,1.85
								C384.81,265.63,384.06,264.86,384.06,263.78z"/>
							<path class="st9" d="M392.56,263.78c0-1.09,0.75-1.86,1.82-1.86c1.07,0,1.8,0.75,1.81,1.86c0,1.09-0.73,1.85-1.82,1.85
								C393.3,265.63,392.56,264.86,392.56,263.78z"/>
						</g>
					</g>
				</g>
			</g>
		</g>
	</g>
		<g>
		<g class="st0">
			<g>
				<g>
					<path class="st1" d="M370.35,584.35c-0.66,1.4-1.03,2.97-1.03,4.63v0c0,6.03,4.88,10.91,10.91,10.91h20.64
						c1.28,0,2.52-0.22,3.66-0.63c-1.74,3.71-5.51,6.28-9.88,6.28h-20.64c-6.03,0-10.91-4.88-10.91-10.91l0,0
						C363.1,589.89,366.12,585.86,370.35,584.35z"/>
				</g>
				<path class="st1" d="M368.53,603.46c-9.07,3.92-11.28,4.29-11.38,3.74c-0.1-0.55,1.99-1.77,4.12-5.09
					c1.38-2.15,2.19-4.28,2.68-5.82"/>
			</g>
			<g>
				<g>
					<path class="st1" d="M325.92,599.84c-4.06,0-7.37-3.3-7.37-7.37v-5.08c0-4.06,3.3-7.37,7.37-7.37h25.72
						c4.06,0,7.37,3.3,7.37,7.37v5.08c0,4.06-3.3,7.37-7.37,7.37H325.92z"/>
					<path class="st2" d="M351.64,581.03c3.51,0,6.37,2.86,6.37,6.37v5.08c0,3.51-2.86,6.37-6.37,6.37h-25.72
						c-3.51,0-6.37-2.86-6.37-6.37v-5.08c0-3.51,2.86-6.37,6.37-6.37H351.64 M351.64,579.03h-25.72c-4.62,0-8.37,3.75-8.37,8.37
						v5.08c0,4.62,3.75,8.37,8.37,8.37h25.72c4.62,0,8.37-3.75,8.37-8.37v-5.08C360,582.77,356.26,579.03,351.64,579.03
						L351.64,579.03z"/>
				</g>
				<path class="st3" d="M323.81,598.77c-9.07,3.92-11.28,4.29-11.38,3.74c-0.1-0.55,1.99-1.77,4.12-5.09
					c1.38-2.15,2.19-4.28,2.68-5.82"/>
			</g>
			<g>
				<g>
					<path class="st4" d="M404.12,598.93H378.4c-4.62,0-8.37-3.75-8.37-8.37v-5.08c0-4.62,3.75-8.37,8.37-8.37h25.72
						c4.62,0,8.37,3.75,8.37,8.37v5.08C412.49,595.19,408.75,598.93,404.12,598.93z"/>
				</g>
				<path class="st4" d="M407.07,596.85c9.08,3.92,11.28,4.29,11.38,3.74c0.1-0.55-1.99-1.77-4.12-5.09
					c-1.38-2.15-2.19-4.28-2.68-5.82"/>
			</g>
			<g>
				<path class="st5" d="M402.52,584.42c-22.43,0-22.43,0-22.43,0"/>
				<path class="st5" d="M402.52,587.23c-22.43,0-22.43,0-22.43,0"/>
				<path class="st5" d="M402.52,590.03c-15.89,0-15.89,0-15.89,0"/>
			</g>
			<g>
				<g>
					<path class="st1" d="M262.11,581.78c-0.66,1.4-1.03,2.97-1.03,4.63l0,0c0,6.03,4.88,10.91,10.91,10.91h20.64
						c0.31,0,0.62-0.01,0.93-0.04h2.43c-1.85,3.39-5.44,5.69-9.58,5.69h-20.64c-6.03,0-10.91-4.88-10.91-10.91l0,0
						C254.86,587.32,257.88,583.28,262.11,581.78z"/>
				</g>
				<path class="st1" d="M260.28,600.89c-9.07,3.92-11.28,4.29-11.38,3.74c-0.1-0.55,1.99-1.77,4.12-5.09
					c1.38-2.15,2.19-4.28,2.68-5.82"/>
			</g>
			<g>
				<g>
					<g>
						<path class="st1" d="M197.21,605.3h25.72c4.62,0,8.37-3.75,8.37-8.37v-5.08c0-4.62-3.75-8.37-8.37-8.37h-25.72
							c-4.62,0-8.37,3.75-8.37,8.37v5.08C188.85,601.56,192.59,605.3,197.21,605.3z"/>
					</g>
					<path class="st1" d="M194.27,603.22c-9.07,3.92-11.28,4.29-11.38,3.74c-0.1-0.55,1.99-1.77,4.12-5.09
						c1.38-2.15,2.19-4.28,2.68-5.82"/>
				</g>
				<g>
					<g>
						<path class="st6" d="M233.04,602.67h-25.72c-4.62,0-8.37-3.75-8.37-8.37v-5.08c0-4.62,3.75-8.37,8.37-8.37h25.72
							c4.62,0,8.37,3.75,8.37,8.37v5.08C241.41,598.92,237.66,602.67,233.04,602.67z"/>
						<path class="st6" d="M235.98,600.59c9.07,3.92,11.28,4.29,11.38,3.74c0.1-0.55-1.99-1.77-4.12-5.09
							c-1.38-2.15-2.19-4.28-2.68-5.82"/>
						<path class="st7" d="M231.44,588.62c-22.43,0-22.43,0-22.43,0"/>
						<path class="st7" d="M231.44,591.43c-22.43,0-22.43,0-22.43,0"/>
						<path class="st7" d="M231.44,594.23c-15.89,0-15.89,0-15.89,0"/>
					</g>
					<g>
						<g>
							<g>
								<g>
									<path class="st4" d="M230.04,600.67h-25.72c-4.62,0-8.37-3.75-8.37-8.37v-5.08c0-4.62,3.75-8.37,8.37-8.37h25.72
										c4.62,0,8.37,3.75,8.37,8.37v5.08C238.41,596.92,234.66,600.67,230.04,600.67z"/>
								</g>
								<path class="st4" d="M232.98,598.59c9.07,3.92,11.28,4.29,11.38,3.74c0.1-0.55-1.99-1.77-4.12-5.09
									c-1.38-2.15-2.19-4.28-2.68-5.82"/>
							</g>
							<g>
								<path class="st8" d="M228.44,586.62c-22.43,0-22.43,0-22.43,0"/>
								<path class="st8" d="M228.44,589.43c-22.43,0-22.43,0-22.43,0"/>
								<path class="st8" d="M228.44,592.23c-15.89,0-15.89,0-15.89,0"/>
							</g>
						</g>
					</g>
				</g>
			</g>
			<g>
				<g>
					<g>
						<g>
							<path class="st6" d="M296.55,602.1h-25.72c-4.62,0-8.37-3.75-8.37-8.37v-5.08c0-4.62,3.75-8.37,8.37-8.37h25.72
								c4.62,0,8.37,3.75,8.37,8.37v5.08C304.91,598.35,301.17,602.1,296.55,602.1z"/>
							<path class="st6" d="M299.49,600.02c9.08,3.92,11.28,4.29,11.38,3.74c0.1-0.55-1.99-1.77-4.12-5.09
								c-1.38-2.15-2.19-4.28-2.68-5.82"/>
						</g>
						<g>
							<g>
								<g>
									<g>
										<path class="st4" d="M293.55,600.1h-25.72c-4.62,0-8.37-3.75-8.37-8.37v-5.08c0-4.62,3.75-8.37,8.37-8.37h25.72
											c4.62,0,8.37,3.75,8.37,8.37v5.08C301.91,596.35,298.17,600.1,293.55,600.1z"/>
									</g>
									<path class="st4" d="M296.49,598.02c9.08,3.92,11.28,4.29,11.38,3.74c0.1-0.55-1.99-1.77-4.12-5.09
										c-1.38-2.15-2.19-4.28-2.68-5.82"/>
								</g>
							</g>
						</g>
					</g>
				</g>
				<g>
					<g>
						<path class="st9" d="M288.98,591.18c-1.09,0-1.82-0.77-1.82-1.85c0.01-1.11,0.75-1.86,1.81-1.86c1.06,0,1.82,0.77,1.82,1.86
							C290.79,590.42,290.05,591.18,288.98,591.18z"/>
						<path class="st9" d="M280.49,591.18c-1.09,0-1.82-0.77-1.82-1.85c0.01-1.11,0.75-1.86,1.81-1.86c1.06,0,1.82,0.77,1.82,1.86
							C282.3,590.42,281.55,591.18,280.49,591.18z"/>
						<path class="st9" d="M271.99,591.18c-1.09,0-1.82-0.77-1.82-1.85c0.01-1.11,0.75-1.86,1.81-1.86c1.06,0,1.82,0.77,1.82,1.86
							C273.81,590.42,273.06,591.18,271.99,591.18z"/>
					</g>
				</g>
			</g>
		</g>
			<g class="st0">
			<g>
				<g>
					<path class="st1" d="M492.53,625.63c-0.66,1.4-1.03,2.97-1.03,4.63v0c0,6.03,4.88,10.91,10.91,10.91h20.64
						c1.28,0,2.52-0.22,3.66-0.63c-1.74,3.71-5.51,6.28-9.88,6.28h-20.64c-6.03,0-10.91-4.88-10.91-10.91l0,0
						C485.28,631.16,488.3,627.13,492.53,625.63z"/>
				</g>
				<path class="st1" d="M490.7,644.74c-9.07,3.92-11.28,4.29-11.38,3.74c-0.1-0.55,1.99-1.77,4.12-5.09
					c1.38-2.15,2.19-4.28,2.68-5.82"/>
			</g>
				<g>
				<g>
					<path class="st1" d="M448.09,641.12c-4.06,0-7.37-3.3-7.37-7.37v-5.08c0-4.06,3.3-7.37,7.37-7.37h25.72
						c4.06,0,7.37,3.3,7.37,7.37v5.08c0,4.06-3.3,7.37-7.37,7.37H448.09z"/>
					<path class="st2" d="M473.82,622.3c3.51,0,6.37,2.86,6.37,6.37v5.08c0,3.51-2.86,6.37-6.37,6.37h-25.72
						c-3.51,0-6.37-2.86-6.37-6.37v-5.08c0-3.51,2.86-6.37,6.37-6.37H473.82 M473.82,620.3h-25.72c-4.62,0-8.37,3.75-8.37,8.37v5.08
						c0,4.62,3.75,8.37,8.37,8.37h25.72c4.62,0,8.37-3.75,8.37-8.37v-5.08C482.18,624.05,478.44,620.3,473.82,620.3L473.82,620.3z"
					/>
				</g>
					<path class="st3" d="M445.99,640.04c-9.08,3.92-11.28,4.29-11.38,3.74c-0.1-0.55,1.99-1.77,4.12-5.09
					c1.38-2.15,2.19-4.28,2.68-5.82"/>
			</g>
				<g>
				<g>
					<path class="st4" d="M526.3,640.21h-25.72c-4.62,0-8.37-3.75-8.37-8.37v-5.08c0-4.62,3.75-8.37,8.37-8.37h25.72
						c4.62,0,8.37,3.75,8.37,8.37v5.08C534.67,636.46,530.92,640.21,526.3,640.21z"/>
				</g>
					<path class="st4" d="M529.24,638.13c9.08,3.92,11.28,4.29,11.38,3.74c0.1-0.55-1.99-1.77-4.12-5.09
					c-1.38-2.15-2.19-4.28-2.68-5.82"/>
			</g>
				<g>
				<path class="st5" d="M524.7,625.7c-22.43,0-22.43,0-22.43,0"/>
					<path class="st5" d="M524.7,628.5c-22.43,0-22.43,0-22.43,0"/>
					<path class="st5" d="M524.7,631.3c-15.89,0-15.89,0-15.89,0"/>
			</g>
				<g>
				<g>
					<path class="st1" d="M384.28,623.05c-0.66,1.4-1.03,2.97-1.03,4.63l0,0c0,6.03,4.88,10.91,10.91,10.91h20.64
						c0.31,0,0.62-0.01,0.93-0.04h2.43c-1.85,3.39-5.44,5.69-9.58,5.69h-20.64c-6.03,0-10.91-4.88-10.91-10.91l0,0
						C377.04,628.59,380.06,624.56,384.28,623.05z"/>
				</g>
					<path class="st1" d="M382.46,642.16c-9.07,3.92-11.28,4.29-11.38,3.74c-0.1-0.55,1.99-1.77,4.12-5.09
					c1.38-2.15,2.19-4.28,2.68-5.82"/>
			</g>
				<g>
				<g>
					<g>
						<path class="st1" d="M319.39,646.58h25.72c4.62,0,8.37-3.75,8.37-8.37v-5.08c0-4.62-3.75-8.37-8.37-8.37h-25.72
							c-4.62,0-8.37,3.75-8.37,8.37v5.08C311.02,642.83,314.77,646.58,319.39,646.58z"/>
					</g>
					<path class="st1" d="M316.45,644.5c-9.08,3.92-11.28,4.29-11.38,3.74c-0.1-0.55,1.99-1.77,4.12-5.09
						c1.38-2.15,2.19-4.28,2.68-5.82"/>
				</g>
					<g>
					<g>
						<path class="st6" d="M355.22,643.94H329.5c-4.62,0-8.37-3.75-8.37-8.37v-5.08c0-4.62,3.75-8.37,8.37-8.37h25.72
							c4.62,0,8.37,3.75,8.37,8.37v5.08C363.59,640.2,359.84,643.94,355.22,643.94z"/>
						<path class="st6" d="M358.16,641.86c9.07,3.92,11.28,4.29,11.38,3.74c0.1-0.55-1.99-1.77-4.12-5.09
							c-1.38-2.15-2.19-4.28-2.68-5.82"/>
						<path class="st7" d="M353.61,629.9c-22.43,0-22.43,0-22.43,0"/>
						<path class="st7" d="M353.61,632.7c-22.43,0-22.43,0-22.43,0"/>
						<path class="st7" d="M353.61,635.51c-15.89,0-15.89,0-15.89,0"/>
					</g>
						<g>
						<g>
							<g>
								<g>
									<path class="st4" d="M352.22,641.94H326.5c-4.62,0-8.37-3.75-8.37-8.37v-5.08c0-4.62,3.75-8.37,8.37-8.37h25.72
										c4.62,0,8.37,3.75,8.37,8.37v5.08C360.59,638.2,356.84,641.94,352.22,641.94z"/>
								</g>
								<path class="st4" d="M355.16,639.86c9.07,3.92,11.28,4.29,11.38,3.74c0.1-0.55-1.99-1.77-4.12-5.09
									c-1.38-2.15-2.19-4.28-2.68-5.82"/>
							</g>
							<g>
								<path class="st8" d="M350.61,627.9c-22.43,0-22.43,0-22.43,0"/>
								<path class="st8" d="M350.61,630.7c-22.43,0-22.43,0-22.43,0"/>
								<path class="st8" d="M350.61,633.51c-15.89,0-15.89,0-15.89,0"/>
							</g>
						</g>
					</g>
				</g>
			</g>
				<g>
				<g>
					<g>
						<g>
							<path class="st6" d="M418.72,643.37H393c-4.62,0-8.37-3.75-8.37-8.37v-5.08c0-4.62,3.75-8.37,8.37-8.37h25.72
								c4.62,0,8.37,3.75,8.37,8.37V635C427.09,639.63,423.34,643.37,418.72,643.37z"/>
							<path class="st6" d="M421.67,641.29c9.08,3.92,11.28,4.29,11.38,3.74c0.1-0.55-1.99-1.77-4.12-5.09
								c-1.38-2.15-2.19-4.28-2.68-5.82"/>
						</g>
						<g>
							<g>
								<g>
									<g>
										<path class="st4" d="M415.72,641.37H390c-4.62,0-8.37-3.75-8.37-8.37v-5.08c0-4.62,3.75-8.37,8.37-8.37h25.72
											c4.62,0,8.37,3.75,8.37,8.37V633C424.09,637.63,420.34,641.37,415.72,641.37z"/>
									</g>
									<path class="st4" d="M418.67,639.29c9.08,3.92,11.28,4.29,11.38,3.74c0.1-0.55-1.99-1.77-4.12-5.09
										c-1.38-2.15-2.19-4.28-2.68-5.82"/>
								</g>
							</g>
						</g>
					</g>
				</g>
					<g>
					<g>
						<path class="st9" d="M411.16,632.46c-1.09,0-1.82-0.77-1.82-1.85c0.01-1.11,0.75-1.86,1.81-1.86c1.06,0,1.82,0.77,1.82,1.86
							C412.97,631.69,412.23,632.46,411.16,632.46z"/>
						<path class="st9" d="M402.66,632.46c-1.09,0-1.82-0.77-1.82-1.85c0.01-1.11,0.75-1.86,1.81-1.86c1.06,0,1.82,0.77,1.82,1.86
							C404.48,631.69,403.73,632.46,402.66,632.46z"/>
						<path class="st9" d="M394.17,632.46c-1.09,0-1.82-0.77-1.82-1.85c0.01-1.11,0.75-1.86,1.81-1.86c1.06,0,1.82,0.77,1.82,1.86
							C395.98,631.69,395.24,632.46,394.17,632.46z"/>
					</g>
				</g>
			</g>
		</g>
			<g class="st0">
			<g>
				<g>
					<path class="st1" d="M466.05,837.89c-0.66,1.4-1.03,2.97-1.03,4.63v0c0,6.03,4.88,10.91,10.91,10.91h20.64
						c1.28,0,2.52-0.22,3.66-0.63c-1.74,3.71-5.51,6.28-9.88,6.28h-20.64c-6.03,0-10.91-4.88-10.91-10.91v0
						C458.8,843.43,461.83,839.39,466.05,837.89z"/>
				</g>
				<path class="st1" d="M464.23,857c-9.08,3.92-11.28,4.29-11.38,3.74c-0.1-0.55,1.99-1.77,4.12-5.09
					c1.38-2.15,2.19-4.28,2.68-5.82"/>
			</g>
				<g>
				<g>
					<path class="st1" d="M421.62,853.38c-4.06,0-7.37-3.3-7.37-7.37v-5.08c0-4.06,3.3-7.37,7.37-7.37h25.72
						c4.06,0,7.37,3.3,7.37,7.37v5.08c0,4.06-3.3,7.37-7.37,7.37H421.62z"/>
					<path class="st2" d="M447.34,834.56c3.51,0,6.37,2.86,6.37,6.37v5.08c0,3.51-2.86,6.37-6.37,6.37h-25.72
						c-3.51,0-6.37-2.86-6.37-6.37v-5.08c0-3.51,2.86-6.37,6.37-6.37H447.34 M447.34,832.56h-25.72c-4.62,0-8.37,3.75-8.37,8.37
						v5.08c0,4.62,3.75,8.37,8.37,8.37h25.72c4.62,0,8.37-3.75,8.37-8.37v-5.08C455.71,836.31,451.96,832.56,447.34,832.56
						L447.34,832.56z"/>
				</g>
					<path class="st3" d="M419.52,852.3c-9.08,3.92-11.28,4.29-11.38,3.74c-0.1-0.55,1.99-1.77,4.12-5.09
					c1.38-2.15,2.19-4.28,2.68-5.82"/>
			</g>
				<g>
				<g>
					<path class="st4" d="M499.83,852.47H474.1c-4.62,0-8.37-3.75-8.37-8.37v-5.08c0-4.62,3.75-8.37,8.37-8.37h25.72
						c4.62,0,8.37,3.75,8.37,8.37v5.08C508.19,848.72,504.45,852.47,499.83,852.47z"/>
				</g>
					<path class="st4" d="M502.77,850.39c9.07,3.92,11.28,4.29,11.38,3.74c0.1-0.55-1.99-1.77-4.12-5.09
					c-1.38-2.15-2.19-4.28-2.68-5.82"/>
			</g>
				<g>
				<path class="st5" d="M498.22,837.96c-22.43,0-22.43,0-22.43,0"/>
					<path class="st5" d="M498.22,840.76c-22.43,0-22.43,0-22.43,0"/>
					<path class="st5" d="M498.22,843.57c-15.89,0-15.89,0-15.89,0"/>
			</g>
				<g>
				<g>
					<path class="st1" d="M357.81,835.31c-0.66,1.4-1.03,2.97-1.03,4.63v0c0,6.03,4.88,10.91,10.91,10.91h20.64
						c0.31,0,0.62-0.01,0.93-0.04h2.43c-1.85,3.39-5.44,5.69-9.58,5.69h-20.64c-6.03,0-10.91-4.88-10.91-10.91l0,0
						C350.56,840.85,353.58,836.82,357.81,835.31z"/>
				</g>
					<path class="st1" d="M355.99,854.42c-9.07,3.92-11.28,4.29-11.38,3.74c-0.1-0.55,1.99-1.77,4.12-5.09
					c1.38-2.15,2.19-4.28,2.68-5.82"/>
			</g>
				<g>
				<g>
					<g>
						<path class="st1" d="M292.91,858.84h25.72c4.62,0,8.37-3.75,8.37-8.37v-5.08c0-4.62-3.75-8.37-8.37-8.37h-25.72
							c-4.62,0-8.37,3.75-8.37,8.37v5.08C284.55,855.09,288.29,858.84,292.91,858.84z"/>
					</g>
					<path class="st1" d="M289.97,856.76c-9.08,3.92-11.28,4.29-11.38,3.74c-0.1-0.55,1.99-1.77,4.12-5.09
						c1.38-2.15,2.19-4.28,2.68-5.82"/>
				</g>
					<g>
					<g>
						<path class="st6" d="M328.74,856.2h-25.72c-4.62,0-8.37-3.75-8.37-8.37v-5.08c0-4.62,3.75-8.37,8.37-8.37h25.72
							c4.62,0,8.37,3.75,8.37,8.37v5.08C337.11,852.46,333.36,856.2,328.74,856.2z"/>
						<path class="st6" d="M331.69,854.12c9.07,3.92,11.28,4.29,11.38,3.74c0.1-0.55-1.99-1.77-4.12-5.09
							c-1.38-2.15-2.19-4.28-2.68-5.82"/>
						<path class="st7" d="M327.14,842.16c-22.43,0-22.43,0-22.43,0"/>
						<path class="st7" d="M327.14,844.96c-22.43,0-22.43,0-22.43,0"/>
						<path class="st7" d="M327.14,847.77c-15.89,0-15.89,0-15.89,0"/>
					</g>
						<g>
						<g>
							<g>
								<g>
									<path class="st4" d="M325.74,854.2h-25.72c-4.62,0-8.37-3.75-8.37-8.37v-5.08c0-4.62,3.75-8.37,8.37-8.37h25.72
										c4.62,0,8.37,3.75,8.37,8.37v5.08C334.11,850.46,330.36,854.2,325.74,854.2z"/>
								</g>
								<path class="st4" d="M328.69,852.12c9.07,3.92,11.28,4.29,11.38,3.74c0.1-0.55-1.99-1.77-4.12-5.09
									c-1.38-2.15-2.19-4.28-2.68-5.82"/>
							</g>
							<g>
								<path class="st8" d="M324.14,840.16c-22.43,0-22.43,0-22.43,0"/>
								<path class="st8" d="M324.14,842.96c-22.43,0-22.43,0-22.43,0"/>
								<path class="st8" d="M324.14,845.77c-15.89,0-15.89,0-15.89,0"/>
							</g>
						</g>
					</g>
				</g>
			</g>
				<g>
				<g>
					<g>
						<g>
							<path class="st6" d="M392.25,855.63h-25.72c-4.62,0-8.37-3.75-8.37-8.37v-5.08c0-4.62,3.75-8.37,8.37-8.37h25.72
								c4.62,0,8.37,3.75,8.37,8.37v5.08C400.61,851.89,396.87,855.63,392.25,855.63z"/>
							<path class="st6" d="M395.19,853.55c9.07,3.92,11.28,4.29,11.38,3.74c0.1-0.55-1.99-1.77-4.12-5.09
								c-1.38-2.15-2.19-4.28-2.68-5.82"/>
						</g>
						<g>
							<g>
								<g>
									<g>
										<path class="st4" d="M389.25,853.63h-25.72c-4.62,0-8.37-3.75-8.37-8.37v-5.08c0-4.62,3.75-8.37,8.37-8.37h25.72
											c4.62,0,8.37,3.75,8.37,8.37v5.08C397.61,849.89,393.87,853.63,389.25,853.63z"/>
									</g>
									<path class="st4" d="M392.19,851.55c9.07,3.92,11.28,4.29,11.38,3.74c0.1-0.55-1.99-1.77-4.12-5.09
										c-1.38-2.15-2.19-4.28-2.68-5.82"/>
								</g>
							</g>
						</g>
					</g>
				</g>
					<g>
					<g>
						<path class="st9" d="M384.68,844.72c-1.09,0-1.82-0.77-1.82-1.85c0.01-1.11,0.75-1.86,1.81-1.86c1.06,0,1.82,0.77,1.82,1.86
							C386.5,843.95,385.75,844.72,384.68,844.72z"/>
						<path class="st9" d="M376.19,844.72c-1.09,0-1.82-0.77-1.82-1.85c0.01-1.11,0.75-1.86,1.81-1.86c1.06,0,1.82,0.77,1.82,1.86
							C378,843.95,377.26,844.72,376.19,844.72z"/>
						<path class="st9" d="M367.69,844.72c-1.09,0-1.82-0.77-1.82-1.85c0.01-1.11,0.75-1.86,1.81-1.86c1.06,0,1.82,0.77,1.82,1.86
							C369.51,843.95,368.76,844.72,367.69,844.72z"/>
					</g>
				</g>
			</g>
		</g>
			<g class="st0">
			<g>
				<g>
					<path class="st1" d="M335.09,879.16c-0.66,1.4-1.03,2.97-1.03,4.63v0c0,6.03,4.88,10.91,10.91,10.91h20.64
						c1.28,0,2.52-0.22,3.66-0.63c-1.74,3.71-5.51,6.28-9.88,6.28h-20.64c-6.03,0-10.91-4.88-10.91-10.91l0,0
						C327.84,884.7,330.87,880.67,335.09,879.16z"/>
				</g>
				<path class="st1" d="M333.27,898.27c-9.07,3.92-11.28,4.29-11.38,3.74c-0.1-0.55,1.99-1.77,4.12-5.09
					c1.38-2.15,2.19-4.28,2.68-5.82"/>
			</g>
				<g>
				<g>
					<path class="st1" d="M290.66,894.65c-4.06,0-7.37-3.3-7.37-7.37v-5.08c0-4.06,3.3-7.37,7.37-7.37h25.72
						c4.06,0,7.37,3.3,7.37,7.37v5.08c0,4.06-3.3,7.37-7.37,7.37H290.66z"/>
					<path class="st2" d="M316.38,875.84c3.51,0,6.37,2.86,6.37,6.37v5.08c0,3.51-2.86,6.37-6.37,6.37h-25.72
						c-3.51,0-6.37-2.86-6.37-6.37v-5.08c0-3.51,2.86-6.37,6.37-6.37H316.38 M316.38,873.84h-25.72c-4.62,0-8.37,3.75-8.37,8.37
						v5.08c0,4.62,3.75,8.37,8.37,8.37h25.72c4.62,0,8.37-3.75,8.37-8.37v-5.08C324.75,877.58,321,873.84,316.38,873.84
						L316.38,873.84z"/>
				</g>
					<path class="st3" d="M288.56,893.58c-9.07,3.92-11.28,4.29-11.38,3.74c-0.1-0.55,1.99-1.77,4.12-5.09
					c1.38-2.15,2.19-4.28,2.68-5.82"/>
			</g>
				<g>
				<g>
					<path class="st4" d="M368.87,893.74h-25.72c-4.62,0-8.37-3.75-8.37-8.37v-5.08c0-4.62,3.75-8.37,8.37-8.37h25.72
						c4.62,0,8.37,3.75,8.37,8.37v5.08C377.23,890,373.49,893.74,368.87,893.74z"/>
				</g>
					<path class="st4" d="M371.81,891.66c9.08,3.92,11.28,4.29,11.38,3.74c0.1-0.55-1.99-1.77-4.12-5.09
					c-1.38-2.15-2.19-4.28-2.68-5.82"/>
			</g>
				<g>
				<path class="st5" d="M367.26,879.23c-22.43,0-22.43,0-22.43,0"/>
					<path class="st5" d="M367.26,882.04c-22.43,0-22.43,0-22.43,0"/>
					<path class="st5" d="M367.26,884.84c-15.89,0-15.89,0-15.89,0"/>
			</g>
				<g>
				<g>
					<path class="st1" d="M226.85,876.59c-0.66,1.4-1.03,2.97-1.03,4.63l0,0c0,6.03,4.88,10.91,10.91,10.91h20.64
						c0.31,0,0.62-0.01,0.93-0.04h2.43c-1.85,3.39-5.44,5.69-9.58,5.69h-20.64c-6.03,0-10.91-4.88-10.91-10.91l0,0
						C219.6,882.13,222.63,878.09,226.85,876.59z"/>
				</g>
					<path class="st1" d="M225.03,895.7c-9.07,3.92-11.28,4.29-11.38,3.74c-0.1-0.55,1.99-1.77,4.12-5.09
					c1.38-2.15,2.19-4.28,2.68-5.82"/>
			</g>
				<g>
				<g>
					<g>
						<path class="st1" d="M161.96,900.11h25.72c4.62,0,8.37-3.75,8.37-8.37v-5.08c0-4.62-3.75-8.37-8.37-8.37h-25.72
							c-4.62,0-8.37,3.75-8.37,8.37v5.08C153.59,896.37,157.33,900.11,161.96,900.11z"/>
					</g>
					<path class="st1" d="M159.01,898.03c-9.07,3.92-11.28,4.29-11.38,3.74c-0.1-0.55,1.99-1.77,4.12-5.09
						c1.38-2.15,2.19-4.28,2.68-5.82"/>
				</g>
					<g>
					<g>
						<path class="st6" d="M197.78,897.48h-25.72c-4.62,0-8.37-3.75-8.37-8.37v-5.08c0-4.62,3.75-8.37,8.37-8.37h25.72
							c4.62,0,8.37,3.75,8.37,8.37v5.08C206.15,893.73,202.41,897.48,197.78,897.48z"/>
						<path class="st6" d="M200.73,895.4c9.07,3.92,11.28,4.29,11.38,3.74c0.1-0.55-1.99-1.77-4.12-5.09
							c-1.38-2.15-2.19-4.28-2.68-5.82"/>
						<path class="st7" d="M196.18,883.43c-22.43,0-22.43,0-22.43,0"/>
						<path class="st7" d="M196.18,886.24c-22.43,0-22.43,0-22.43,0"/>
						<path class="st7" d="M196.18,889.04c-15.89,0-15.89,0-15.89,0"/>
					</g>
						<g>
						<g>
							<g>
								<g>
									<path class="st4" d="M194.78,895.48h-25.72c-4.62,0-8.37-3.75-8.37-8.37v-5.08c0-4.62,3.75-8.37,8.37-8.37h25.72
										c4.62,0,8.37,3.75,8.37,8.37v5.08C203.15,891.73,199.41,895.48,194.78,895.48z"/>
								</g>
								<path class="st4" d="M197.73,893.4c9.07,3.92,11.28,4.29,11.38,3.74c0.1-0.55-1.99-1.77-4.12-5.09
									c-1.38-2.15-2.19-4.28-2.68-5.82"/>
							</g>
							<g>
								<path class="st8" d="M193.18,881.43c-22.43,0-22.43,0-22.43,0"/>
								<path class="st8" d="M193.18,884.24c-22.43,0-22.43,0-22.43,0"/>
								<path class="st8" d="M193.18,887.04c-15.89,0-15.89,0-15.89,0"/>
							</g>
						</g>
					</g>
				</g>
			</g>
				<g>
				<g>
					<g>
						<g>
							<path class="st6" d="M261.29,896.91h-25.72c-4.62,0-8.37-3.75-8.37-8.37v-5.08c0-4.62,3.75-8.37,8.37-8.37h25.72
								c4.62,0,8.37,3.75,8.37,8.37v5.08C269.66,893.16,265.91,896.91,261.29,896.91z"/>
							<path class="st6" d="M264.23,894.83c9.08,3.92,11.28,4.29,11.38,3.74c0.1-0.55-1.99-1.77-4.12-5.09
								c-1.38-2.15-2.19-4.28-2.68-5.82"/>
						</g>
						<g>
							<g>
								<g>
									<g>
										<path class="st4" d="M258.29,894.91h-25.72c-4.62,0-8.37-3.75-8.37-8.37v-5.08c0-4.62,3.75-8.37,8.37-8.37h25.72
											c4.62,0,8.37,3.75,8.37,8.37v5.08C266.66,891.16,262.91,894.91,258.29,894.91z"/>
									</g>
									<path class="st4" d="M261.23,892.83c9.08,3.92,11.28,4.29,11.38,3.74c0.1-0.55-1.99-1.77-4.12-5.09
										c-1.38-2.15-2.19-4.28-2.68-5.82"/>
								</g>
							</g>
						</g>
					</g>
				</g>
					<g>
					<g>
						<path class="st9" d="M253.72,885.99c-1.09,0-1.82-0.77-1.82-1.85c0.01-1.11,0.75-1.86,1.81-1.86c1.06,0,1.82,0.77,1.82,1.86
							C255.54,885.22,254.79,885.99,253.72,885.99z"/>
						<path class="st9" d="M245.23,885.99c-1.09,0-1.82-0.77-1.82-1.85c0.01-1.11,0.75-1.86,1.81-1.86c1.06,0,1.82,0.77,1.82,1.86
							C247.04,885.22,246.3,885.99,245.23,885.99z"/>
						<path class="st9" d="M236.74,885.99c-1.09,0-1.82-0.77-1.82-1.85c0.01-1.11,0.75-1.86,1.81-1.86c1.06,0,1.82,0.77,1.82,1.86
							C238.55,885.22,237.8,885.99,236.74,885.99z"/>
					</g>
				</g>
			</g>
		</g>
			<g class="st0">
			<g>
				<g>
					<path class="st1" d="M216.47,919.59c-0.66,1.4-1.03,2.97-1.03,4.63v0c0,6.03,4.88,10.91,10.91,10.91h20.64
						c1.28,0,2.52-0.22,3.66-0.63c-1.74,3.71-5.51,6.28-9.88,6.28h-20.64c-6.03,0-10.91-4.88-10.91-10.91v0
						C209.22,925.13,212.24,921.1,216.47,919.59z"/>
				</g>
				<path class="st1" d="M214.64,938.7c-9.07,3.92-11.28,4.29-11.38,3.74c-0.1-0.55,1.99-1.77,4.12-5.09
					c1.38-2.15,2.19-4.28,2.68-5.82"/>
			</g>
				<g>
				<g>
					<path class="st1" d="M172.03,935.09c-4.06,0-7.37-3.3-7.37-7.37v-5.08c0-4.06,3.3-7.37,7.37-7.37h25.72
						c4.06,0,7.37,3.3,7.37,7.37v5.08c0,4.06-3.3,7.37-7.37,7.37H172.03z"/>
					<path class="st2" d="M197.75,916.27c3.51,0,6.37,2.86,6.37,6.37v5.08c0,3.51-2.86,6.37-6.37,6.37h-25.72
						c-3.51,0-6.37-2.86-6.37-6.37v-5.08c0-3.51,2.86-6.37,6.37-6.37H197.75 M197.75,914.27h-25.72c-4.62,0-8.37,3.75-8.37,8.37
						v5.08c0,4.62,3.75,8.37,8.37,8.37h25.72c4.62,0,8.37-3.75,8.37-8.37v-5.08C206.12,918.01,202.38,914.27,197.75,914.27
						L197.75,914.27z"/>
				</g>
					<path class="st3" d="M169.93,934.01c-9.07,3.92-11.28,4.29-11.38,3.74c-0.1-0.55,1.99-1.77,4.12-5.09
					c1.38-2.15,2.19-4.28,2.68-5.82"/>
			</g>
				<g>
				<g>
					<path class="st4" d="M250.24,934.17h-25.72c-4.62,0-8.37-3.75-8.37-8.37v-5.08c0-4.62,3.75-8.37,8.37-8.37h25.72
						c4.62,0,8.37,3.75,8.37,8.37v5.08C258.61,930.43,254.86,934.17,250.24,934.17z"/>
				</g>
					<path class="st4" d="M253.18,932.1c9.07,3.92,11.28,4.29,11.38,3.74c0.1-0.55-1.99-1.77-4.12-5.09
					c-1.38-2.15-2.19-4.28-2.68-5.82"/>
			</g>
				<g>
				<path class="st5" d="M248.64,919.66c-22.43,0-22.43,0-22.43,0"/>
					<path class="st5" d="M248.64,922.47c-22.43,0-22.43,0-22.43,0"/>
					<path class="st5" d="M248.64,925.27c-15.89,0-15.89,0-15.89,0"/>
			</g>
				<g>
				<g>
					<path class="st1" d="M108.22,917.02c-0.66,1.4-1.03,2.97-1.03,4.63v0c0,6.03,4.88,10.91,10.91,10.91h20.64
						c0.31,0,0.62-0.01,0.93-0.04h2.43c-1.85,3.39-5.44,5.69-9.58,5.69h-20.64c-6.03,0-10.91-4.88-10.91-10.91l0,0
						C100.98,922.56,104,918.53,108.22,917.02z"/>
				</g>
					<path class="st1" d="M106.4,936.13c-9.07,3.92-11.28,4.29-11.38,3.74c-0.1-0.55,1.99-1.77,4.12-5.09
					c1.38-2.15,2.19-4.28,2.68-5.82"/>
			</g>
				<g>
				<g>
					<g>
						<path class="st1" d="M43.33,940.55h25.72c4.62,0,8.37-3.75,8.37-8.37v-5.08c0-4.62-3.75-8.37-8.37-8.37H43.33
							c-4.62,0-8.37,3.75-8.37,8.37v5.08C34.96,936.8,38.71,940.55,43.33,940.55z"/>
					</g>
					<path class="st1" d="M40.39,938.47c-9.07,3.92-11.28,4.29-11.38,3.74c-0.1-0.55,1.99-1.77,4.12-5.09
						c1.38-2.15,2.19-4.28,2.68-5.82"/>
				</g>
					<g>
					<g>
						<path class="st6" d="M79.16,937.91H53.44c-4.62,0-8.37-3.75-8.37-8.37v-5.08c0-4.62,3.75-8.37,8.37-8.37h25.72
							c4.62,0,8.37,3.75,8.37,8.37v5.08C87.53,934.16,83.78,937.91,79.16,937.91z"/>
						<path class="st6" d="M82.1,935.83c9.07,3.92,11.28,4.29,11.38,3.74c0.1-0.55-1.99-1.77-4.12-5.09
							c-1.38-2.15-2.19-4.28-2.68-5.82"/>
						<path class="st7" d="M77.55,923.87c-22.43,0-22.43,0-22.43,0"/>
						<path class="st7" d="M77.55,926.67c-22.43,0-22.43,0-22.43,0"/>
						<path class="st7" d="M77.55,929.47c-15.89,0-15.89,0-15.89,0"/>
					</g>
						<g>
						<g>
							<g>
								<g>
									<path class="st4" d="M76.16,935.91H50.44c-4.62,0-8.37-3.75-8.37-8.37v-5.08c0-4.62,3.75-8.37,8.37-8.37h25.72
										c4.62,0,8.37,3.75,8.37,8.37v5.08C84.53,932.16,80.78,935.91,76.16,935.91z"/>
								</g>
								<path class="st4" d="M79.1,933.83c9.07,3.92,11.28,4.29,11.38,3.74c0.1-0.55-1.99-1.77-4.12-5.09
									c-1.38-2.15-2.19-4.28-2.68-5.82"/>
							</g>
							<g>
								<path class="st8" d="M74.55,921.87c-22.43,0-22.43,0-22.43,0"/>
								<path class="st8" d="M74.55,924.67c-22.43,0-22.43,0-22.43,0"/>
								<path class="st8" d="M74.55,927.47c-15.89,0-15.89,0-15.89,0"/>
							</g>
						</g>
					</g>
				</g>
			</g>
				<g>
				<g>
					<g>
						<g>
							<path class="st6" d="M142.66,937.34h-25.72c-4.62,0-8.37-3.75-8.37-8.37v-5.08c0-4.62,3.75-8.37,8.37-8.37h25.72
								c4.62,0,8.37,3.75,8.37,8.37v5.08C151.03,933.59,147.28,937.34,142.66,937.34z"/>
							<path class="st6" d="M145.61,935.26c9.07,3.92,11.28,4.29,11.38,3.74c0.1-0.55-1.99-1.77-4.12-5.09
								c-1.38-2.15-2.19-4.28-2.68-5.82"/>
						</g>
						<g>
							<g>
								<g>
									<g>
										<path class="st4" d="M139.66,935.34h-25.72c-4.62,0-8.37-3.75-8.37-8.37v-5.08c0-4.62,3.75-8.37,8.37-8.37h25.72
											c4.62,0,8.37,3.75,8.37,8.37v5.08C148.03,931.59,144.28,935.34,139.66,935.34z"/>
									</g>
									<path class="st4" d="M142.61,933.26c9.07,3.92,11.28,4.29,11.38,3.74c0.1-0.55-1.99-1.77-4.12-5.09
										c-1.38-2.15-2.19-4.28-2.68-5.82"/>
								</g>
							</g>
						</g>
					</g>
				</g>
					<g>
					<g>
						<path class="st9" d="M135.1,926.43c-1.09,0-1.82-0.77-1.82-1.85c0.01-1.11,0.75-1.86,1.81-1.86c1.06,0,1.82,0.77,1.82,1.86
							C136.91,925.66,136.17,926.43,135.1,926.43z"/>
						<path class="st9" d="M126.6,926.43c-1.09,0-1.82-0.77-1.82-1.85c0.01-1.11,0.75-1.86,1.81-1.86c1.06,0,1.82,0.77,1.82,1.86
							C128.42,925.66,127.67,926.43,126.6,926.43z"/>
						<path class="st9" d="M118.11,926.43c-1.09,0-1.82-0.77-1.82-1.85c0.01-1.11,0.75-1.86,1.81-1.86c1.06,0,1.82,0.77,1.82,1.86
							C119.92,925.66,119.18,926.43,118.11,926.43z"/>
					</g>
				</g>
			</g>
		</g>
			<g class="st0">
			<g>
				<g>
					<g>
						<path class="st1" d="M480.75,753.66c-0.66,1.4-1.03,2.97-1.03,4.63v0c0,6.03,4.88,10.91,10.91,10.91h20.64
							c1.28,0,2.52-0.22,3.66-0.63c-1.74,3.71-5.51,6.28-9.88,6.28h-20.64c-6.03,0-10.91-4.88-10.91-10.91v0
							C473.5,759.19,476.52,755.16,480.75,753.66z"/>
					</g>
					<path class="st1" d="M478.93,772.77c-9.07,3.92-11.28,4.29-11.38,3.74c-0.1-0.55,1.99-1.77,4.12-5.09
						c1.38-2.15,2.19-4.28,2.68-5.82"/>
				</g>
				<g>
					<g>
						<path class="st1" d="M436.31,769.15c-4.06,0-7.37-3.3-7.37-7.37v-5.08c0-4.06,3.3-7.37,7.37-7.37h25.72
							c4.06,0,7.37,3.3,7.37,7.37v5.08c0,4.06-3.3,7.37-7.37,7.37H436.31z"/>
						<path class="st2" d="M462.04,750.33c3.51,0,6.37,2.86,6.37,6.37v5.08c0,3.51-2.86,6.37-6.37,6.37h-25.72
							c-3.51,0-6.37-2.86-6.37-6.37v-5.08c0-3.51,2.86-6.37,6.37-6.37H462.04 M462.04,748.33h-25.72c-4.62,0-8.37,3.75-8.37,8.37
							v5.08c0,4.62,3.75,8.37,8.37,8.37h25.72c4.62,0,8.37-3.75,8.37-8.37v-5.08C470.4,752.08,466.66,748.33,462.04,748.33
							L462.04,748.33z"/>
					</g>
					<path class="st3" d="M434.21,768.07c-9.08,3.92-11.28,4.29-11.38,3.74c-0.1-0.55,1.99-1.77,4.12-5.09
						c1.38-2.15,2.19-4.28,2.68-5.82"/>
				</g>
				<g>
					<g>
						<path class="st4" d="M514.52,768.24H488.8c-4.62,0-8.37-3.75-8.37-8.37v-5.08c0-4.62,3.75-8.37,8.37-8.37h25.72
							c4.62,0,8.37,3.75,8.37,8.37v5.08C522.89,764.49,519.14,768.24,514.52,768.24z"/>
					</g>
					<path class="st4" d="M517.47,766.16c9.08,3.92,11.28,4.29,11.38,3.74c0.1-0.55-1.99-1.77-4.12-5.09
						c-1.38-2.15-2.19-4.28-2.68-5.82"/>
				</g>
				<g>
					<path class="st5" d="M512.92,753.73c-22.43,0-22.43,0-22.43,0"/>
					<path class="st5" d="M512.92,756.53c-22.43,0-22.43,0-22.43,0"/>
					<path class="st5" d="M512.92,759.33c-15.89,0-15.89,0-15.89,0"/>
				</g>
				<g>
					<g>
						<path class="st1" d="M372.51,751.08c-0.66,1.4-1.03,2.97-1.03,4.63v0c0,6.03,4.88,10.91,10.91,10.91h20.64
							c0.31,0,0.62-0.01,0.93-0.04h2.43c-1.85,3.39-5.44,5.69-9.58,5.69h-20.64c-6.03,0-10.91-4.88-10.91-10.91l0,0
							C365.26,756.62,368.28,752.59,372.51,751.08z"/>
					</g>
					<path class="st1" d="M370.68,770.19c-9.07,3.92-11.28,4.29-11.38,3.74c-0.1-0.55,1.99-1.77,4.12-5.09
						c1.38-2.15,2.19-4.28,2.68-5.82"/>
				</g>
				<g>
					<g>
						<g>
							<path class="st1" d="M307.61,774.61h25.72c4.62,0,8.37-3.75,8.37-8.37v-5.08c0-4.62-3.75-8.37-8.37-8.37h-25.72
								c-4.62,0-8.37,3.75-8.37,8.37v5.08C299.25,770.86,302.99,774.61,307.61,774.61z"/>
						</g>
						<path class="st1" d="M304.67,772.53c-9.08,3.92-11.28,4.29-11.38,3.74c-0.1-0.55,1.99-1.77,4.12-5.09
							c1.38-2.15,2.19-4.28,2.68-5.82"/>
					</g>
					<g>
						<g>
							<path class="st6" d="M343.44,771.97h-25.72c-4.62,0-8.37-3.75-8.37-8.37v-5.08c0-4.62,3.75-8.37,8.37-8.37h25.72
								c4.62,0,8.37,3.75,8.37,8.37v5.08C351.81,768.22,348.06,771.97,343.44,771.97z"/>
							<path class="st6" d="M346.38,769.89c9.07,3.92,11.28,4.29,11.38,3.74c0.1-0.55-1.99-1.77-4.12-5.09
								c-1.38-2.15-2.19-4.28-2.68-5.82"/>
							<path class="st7" d="M341.84,757.93c-22.43,0-22.43,0-22.43,0"/>
							<path class="st7" d="M341.84,760.73c-22.43,0-22.43,0-22.43,0"/>
							<path class="st7" d="M341.84,763.54c-15.89,0-15.89,0-15.89,0"/>
						</g>
						<g>
							<g>
								<g>
									<g>
										<path class="st4" d="M340.44,769.97h-25.72c-4.62,0-8.37-3.75-8.37-8.37v-5.08c0-4.62,3.75-8.37,8.37-8.37h25.72
											c4.62,0,8.37,3.75,8.37,8.37v5.08C348.81,766.22,345.06,769.97,340.44,769.97z"/>
									</g>
									<path class="st4" d="M343.38,767.89c9.07,3.92,11.28,4.29,11.38,3.74c0.1-0.55-1.99-1.77-4.12-5.09
										c-1.38-2.15-2.19-4.28-2.68-5.82"/>
								</g>
								<g>
									<path class="st8" d="M338.84,755.93c-22.43,0-22.43,0-22.43,0"/>
									<path class="st8" d="M338.84,758.73c-22.43,0-22.43,0-22.43,0"/>
									<path class="st8" d="M338.84,761.54c-15.89,0-15.89,0-15.89,0"/>
								</g>
							</g>
						</g>
					</g>
				</g>
				<g>
					<g>
						<g>
							<g>
								<path class="st6" d="M406.95,771.4h-25.72c-4.62,0-8.37-3.75-8.37-8.37v-5.08c0-4.62,3.75-8.37,8.37-8.37h25.72
									c4.62,0,8.37,3.75,8.37,8.37v5.08C415.31,767.66,411.57,771.4,406.95,771.4z"/>
								<path class="st6" d="M409.89,769.32c9.08,3.92,11.28,4.29,11.38,3.74c0.1-0.55-1.99-1.77-4.12-5.09
									c-1.38-2.15-2.19-4.28-2.68-5.82"/>
							</g>
							<g>
								<g>
									<g>
										<g>
											<path class="st4" d="M403.95,769.4h-25.72c-4.62,0-8.37-3.75-8.37-8.37v-5.08c0-4.62,3.75-8.37,8.37-8.37h25.72
												c4.62,0,8.37,3.75,8.37,8.37v5.08C412.31,765.66,408.57,769.4,403.95,769.4z"/>
										</g>
										<path class="st4" d="M406.89,767.32c9.08,3.92,11.28,4.29,11.38,3.74c0.1-0.55-1.99-1.77-4.12-5.09
											c-1.38-2.15-2.19-4.28-2.68-5.82"/>
									</g>
								</g>
							</g>
						</g>
					</g>
					<g>
						<g>
							<path class="st9" d="M399.38,760.49c-1.09,0-1.82-0.77-1.82-1.85c0.01-1.11,0.75-1.86,1.81-1.86c1.06,0,1.82,0.77,1.82,1.86
								C401.19,759.72,400.45,760.49,399.38,760.49z"/>
							<path class="st9" d="M390.89,760.49c-1.09,0-1.82-0.77-1.82-1.85c0.01-1.11,0.75-1.86,1.81-1.86c1.06,0,1.82,0.77,1.82,1.86
								C392.7,759.72,391.95,760.49,390.89,760.49z"/>
							<path class="st9" d="M382.39,760.49c-1.09,0-1.82-0.77-1.82-1.85c0.01-1.11,0.75-1.86,1.81-1.86c1.06,0,1.82,0.77,1.82,1.86
								C384.21,759.72,383.46,760.49,382.39,760.49z"/>
						</g>
					</g>
				</g>
			</g>
				<g>
				<g>
					<g>
						<path class="st1" d="M727.98,753.66c-0.66,1.4-1.03,2.97-1.03,4.63v0c0,6.03,4.88,10.91,10.91,10.91h20.64
							c1.28,0,2.52-0.22,3.66-0.63c-1.74,3.71-5.51,6.28-9.88,6.28h-20.64c-6.03,0-10.91-4.88-10.91-10.91v0
							C720.74,759.19,723.76,755.16,727.98,753.66z"/>
					</g>
					<path class="st1" d="M726.16,772.77c-9.08,3.92-11.28,4.29-11.38,3.74c-0.1-0.55,1.99-1.77,4.12-5.09
						c1.38-2.15,2.19-4.28,2.68-5.82"/>
				</g>
					<g>
					<g>
						<path class="st1" d="M683.55,769.15c-4.06,0-7.37-3.3-7.37-7.37v-5.08c0-4.06,3.3-7.37,7.37-7.37h25.72
							c4.06,0,7.37,3.3,7.37,7.37v5.08c0,4.06-3.3,7.37-7.37,7.37H683.55z"/>
						<path class="st2" d="M709.27,750.33c3.51,0,6.37,2.86,6.37,6.37v5.08c0,3.51-2.86,6.37-6.37,6.37h-25.72
							c-3.51,0-6.37-2.86-6.37-6.37v-5.08c0-3.51,2.86-6.37,6.37-6.37H709.27 M709.27,748.33h-25.72c-4.62,0-8.37,3.75-8.37,8.37
							v5.08c0,4.62,3.75,8.37,8.37,8.37h25.72c4.62,0,8.37-3.75,8.37-8.37v-5.08C717.64,752.08,713.89,748.33,709.27,748.33
							L709.27,748.33z"/>
					</g>
						<path class="st3" d="M681.45,768.07c-9.08,3.92-11.28,4.29-11.38,3.74c-0.1-0.55,1.99-1.77,4.12-5.09
						c1.38-2.15,2.19-4.28,2.68-5.82"/>
				</g>
					<g>
					<g>
						<path class="st4" d="M761.76,768.24h-25.72c-4.62,0-8.37-3.75-8.37-8.37v-5.08c0-4.62,3.75-8.37,8.37-8.37h25.72
							c4.62,0,8.37,3.75,8.37,8.37v5.08C770.13,764.49,766.38,768.24,761.76,768.24z"/>
					</g>
						<path class="st4" d="M764.7,766.16c9.08,3.92,11.28,4.29,11.38,3.74c0.1-0.55-1.99-1.77-4.12-5.09
						c-1.38-2.15-2.19-4.28-2.68-5.82"/>
				</g>
					<g>
					<path class="st5" d="M760.15,753.73c-22.43,0-22.43,0-22.43,0"/>
						<path class="st5" d="M760.15,756.53c-22.43,0-22.43,0-22.43,0"/>
						<path class="st5" d="M760.15,759.33c-15.89,0-15.89,0-15.89,0"/>
				</g>
					<g>
					<g>
						<path class="st1" d="M619.74,751.08c-0.66,1.4-1.03,2.97-1.03,4.63v0c0,6.03,4.88,10.91,10.91,10.91h20.64
							c0.31,0,0.62-0.01,0.93-0.04h2.43c-1.85,3.39-5.44,5.69-9.58,5.69H623.4c-6.03,0-10.91-4.88-10.91-10.91l0,0
							C612.49,756.62,615.52,752.59,619.74,751.08z"/>
					</g>
						<path class="st1" d="M617.92,770.19c-9.08,3.92-11.28,4.29-11.38,3.74c-0.1-0.55,1.99-1.77,4.12-5.09
						c1.38-2.15,2.19-4.28,2.68-5.82"/>
				</g>
					<g>
					<g>
						<g>
							<path class="st1" d="M554.85,774.61h25.72c4.62,0,8.37-3.75,8.37-8.37v-5.08c0-4.62-3.75-8.37-8.37-8.37h-25.72
								c-4.62,0-8.37,3.75-8.37,8.37v5.08C546.48,770.86,550.23,774.61,554.85,774.61z"/>
						</g>
						<path class="st1" d="M551.91,772.53c-9.08,3.92-11.28,4.29-11.38,3.74c-0.1-0.55,1.99-1.77,4.12-5.09
							c1.38-2.15,2.19-4.28,2.68-5.82"/>
					</g>
						<g>
						<g>
							<path class="st6" d="M590.68,771.97h-25.72c-4.62,0-8.37-3.75-8.37-8.37v-5.08c0-4.62,3.75-8.37,8.37-8.37h25.72
								c4.62,0,8.37,3.75,8.37,8.37v5.08C599.04,768.22,595.3,771.97,590.68,771.97z"/>
							<path class="st6" d="M593.62,769.89c9.07,3.92,11.28,4.29,11.38,3.74c0.1-0.55-1.99-1.77-4.12-5.09
								c-1.38-2.15-2.19-4.28-2.68-5.82"/>
							<path class="st7" d="M589.07,757.93c-22.43,0-22.43,0-22.43,0"/>
							<path class="st7" d="M589.07,760.73c-22.43,0-22.43,0-22.43,0"/>
							<path class="st7" d="M589.07,763.54c-15.89,0-15.89,0-15.89,0"/>
						</g>
							<g>
							<g>
								<g>
									<g>
										<path class="st4" d="M587.68,769.97h-25.72c-4.62,0-8.37-3.75-8.37-8.37v-5.08c0-4.62,3.75-8.37,8.37-8.37h25.72
											c4.62,0,8.37,3.75,8.37,8.37v5.08C596.04,766.22,592.3,769.97,587.68,769.97z"/>
									</g>
									<path class="st4" d="M590.62,767.89c9.07,3.92,11.28,4.29,11.38,3.74c0.1-0.55-1.99-1.77-4.12-5.09
										c-1.38-2.15-2.19-4.28-2.68-5.82"/>
								</g>
								<g>
									<path class="st8" d="M586.07,755.93c-22.43,0-22.43,0-22.43,0"/>
									<path class="st8" d="M586.07,758.73c-22.43,0-22.43,0-22.43,0"/>
									<path class="st8" d="M586.07,761.54c-15.89,0-15.89,0-15.89,0"/>
								</g>
							</g>
						</g>
					</g>
				</g>
					<g>
					<g>
						<g>
							<g>
								<path class="st6" d="M654.18,771.4h-25.72c-4.62,0-8.37-3.75-8.37-8.37v-5.08c0-4.62,3.75-8.37,8.37-8.37h25.72
									c4.62,0,8.37,3.75,8.37,8.37v5.08C662.55,767.66,658.8,771.4,654.18,771.4z"/>
								<path class="st6" d="M657.12,769.32c9.08,3.92,11.28,4.29,11.38,3.74c0.1-0.55-1.99-1.77-4.12-5.09
									c-1.38-2.15-2.19-4.28-2.68-5.82"/>
							</g>
							<g>
								<g>
									<g>
										<g>
											<path class="st4" d="M651.18,769.4h-25.72c-4.62,0-8.37-3.75-8.37-8.37v-5.08c0-4.62,3.75-8.37,8.37-8.37h25.72
												c4.62,0,8.37,3.75,8.37,8.37v5.08C659.55,765.66,655.8,769.4,651.18,769.4z"/>
										</g>
										<path class="st4" d="M654.12,767.32c9.08,3.92,11.28,4.29,11.38,3.74c0.1-0.55-1.99-1.77-4.12-5.09
											c-1.38-2.15-2.19-4.28-2.68-5.82"/>
									</g>
								</g>
							</g>
						</g>
					</g>
						<g>
						<g>
							<path class="st9" d="M646.62,760.49c-1.09,0-1.82-0.77-1.82-1.85c0.01-1.11,0.75-1.86,1.81-1.86c1.06,0,1.82,0.77,1.82,1.86
								C648.43,759.72,647.68,760.49,646.62,760.49z"/>
							<path class="st9" d="M638.12,760.49c-1.09,0-1.82-0.77-1.82-1.85c0.01-1.11,0.75-1.86,1.81-1.86c1.06,0,1.82,0.77,1.82,1.86
								C639.94,759.72,639.19,760.49,638.12,760.49z"/>
							<path class="st9" d="M629.63,760.49c-1.09,0-1.82-0.77-1.82-1.85c0.01-1.11,0.75-1.86,1.81-1.86c1.06,0,1.82,0.77,1.82,1.86
								C631.44,759.72,630.7,760.49,629.63,760.49z"/>
						</g>
					</g>
				</g>
			</g>
		</g>
	</g>
</g>
</svg>
