<?xml version="1.0" encoding="utf-8"?>
<!-- Generator: Adobe Illustrator 24.3.0, SVG Export Plug-In . SVG Version: 6.00 Build 0)  -->
<svg version="1.1" id="Layer_1" xmlns="http://www.w3.org/2000/svg" x="0px" y="0px"
	 viewBox="0 0 1024 1024" style="enable-background:new 0 0 1024 1024;" xml:space="preserve">
<style type="text/css">
	.st0{opacity:0.1;}
	.st1{fill:#FFFFFF;}
	.st2{fill:#FFFFFF;stroke:#FFFFFF;stroke-width:20;stroke-miterlimit:10;}
	.st3{fill:url(#SVGID_1_);}
	.st4{fill:#3FA9F5;}
	.st5{fill:#3FA9F5;stroke:#E6E6E6;stroke-width:20;stroke-miterlimit:10;}
</style>
	<g class="st0">
	<g>
		<path class="st1" d="M261.92,427.4h582.69c79.74,0,144.39-64.64,144.39-144.39V182.39C989,102.64,924.36,38,844.61,38H261.92
			c-79.74,0-144.39,64.64-144.39,144.39v100.62C117.54,362.75,182.18,427.4,261.92,427.4z"/>
		<path class="st1" d="M227.9,401.54C83.04,448.31,46.57,453.03,43.63,446.82c-2.97-6.27,29.77-20.57,58.65-58.96
			c18.69-24.85,27.84-49.26,32.7-66.9"/>
		<path class="st2" d="M322.23,176.77c460.48,0,460.48,0,460.48,0"/>
		<path class="st2" d="M322.23,226.82c460.48,0,460.48,0,460.48,0"/>
		<path class="st2" d="M322.23,276.86c326.17,0,326.17,0,326.17,0"/>
	</g>
		<g>
		<g>
			<g>
				<g>
					<linearGradient id="SVGID_1_" gradientUnits="userSpaceOnUse" x1="277.343" y1="503.624" x2="823.1934"
									y2="-42.2264">
						<stop offset="0.0931" style="stop-color:#3FA9F5"/>
						<stop offset="0.5263" style="stop-color:#5AA8E9;stop-opacity:0.5223"/>
						<stop offset="1" style="stop-color:#73A7DD;stop-opacity:0"/>
					</linearGradient>
					<path class="st3" d="M258.92,425.4h582.69c79.74,0,144.39-64.64,144.39-144.39V180.39C986,100.64,921.36,36,841.61,36H258.92
						c-79.74,0-144.39,64.64-144.39,144.39v100.62C114.54,360.75,179.18,425.4,258.92,425.4z"/>
				</g>
				<path class="st4" d="M224.9,399.54C80.04,446.31,43.57,451.03,40.63,444.82c-2.97-6.27,29.77-20.57,58.65-58.96
					c18.69-24.85,27.84-49.26,32.7-66.9"/>
			</g>
			<g>
				<path class="st5" d="M319.23,174.77c460.48,0,460.48,0,460.48,0"/>
				<path class="st5" d="M319.23,224.82c460.48,0,460.48,0,460.48,0"/>
				<path class="st5" d="M319.23,274.86c326.17,0,326.17,0,326.17,0"/>
			</g>
		</g>
	</g>
</g>
</svg>
